<svg width="82" height="78" viewBox="0 0 82 78" fill="none" xmlns="http://www.w3.org/2000/svg">
<path d="M72.8651 24.2834H64.1211V9.80989C64.1169 7.20852 63.0221 4.71427 61.0768 2.87507C59.1321 1.03644 56.4957 0.00218132 53.746 2.75201e-05H10.4091C7.65225 -0.00614227 5.00575 1.02532 3.05316 2.86674C1.10072 4.70867 0.00242784 7.2091 0 9.81836V43.0185C0.00652011 45.6243 1.10723 48.1215 3.05908 49.9595C5.01151 51.7976 7.65513 52.8268 10.4091 52.8206H15.618V64.0776C15.6168 64.892 16.1343 65.6261 16.9291 65.938C17.724 66.2499 18.6392 66.0771 19.2466 65.5005L32.5873 52.8205H35.1367V58.1114C35.1391 60.3959 36.0963 62.5873 37.7999 64.2071C39.5035 65.8263 41.8145 66.7423 44.2293 66.7552H54.7148L65.9909 77.4092C66.5984 77.9858 67.5136 78.1585 68.3084 77.8467C69.1032 77.5348 69.6207 76.8001 69.6195 75.9862V66.7552H72.8654C75.2873 66.7529 77.6097 65.8415 79.3221 64.2211C81.0351 62.6008 81.9977 60.4032 82 58.1114V32.9277C81.9976 30.6359 81.035 28.4383 79.3221 26.8179C77.6097 25.1975 75.2873 24.286 72.8654 24.2839L72.8651 24.2834ZM31.7026 48.8009C31.1389 48.7998 30.5977 49.0107 30.1988 49.3876L19.8319 59.1897V50.8111C19.8319 50.2777 19.6079 49.7662 19.2095 49.3893C18.8112 49.0124 18.2713 48.8009 17.7076 48.8009H10.4081C8.7804 48.8093 7.21627 48.2047 6.06046 47.1199C4.90463 46.0352 4.25203 44.5595 4.24793 43.0192V9.81906C4.24793 8.2755 4.89817 6.79641 6.05394 5.70774C7.21036 4.61962 8.77752 4.01269 10.4081 4.02116H53.745C55.3697 4.02116 56.9281 4.63197 58.0774 5.71951C59.2261 6.80651 59.8715 8.2811 59.8715 9.81906V43.0192C59.8674 44.5539 59.2195 46.0245 58.0715 47.1082C56.9227 48.1923 55.3668 48.8009 53.745 48.8009L31.7026 48.8009ZM77.7496 58.1122C77.7496 59.3383 77.2351 60.5144 76.3187 61.3811C75.4023 62.2483 74.1595 62.7357 72.8636 62.7357H67.4934C66.3198 62.7357 65.369 63.6353 65.369 64.7459V71.1787L57.0927 63.3627H57.0921C56.6932 62.9858 56.152 62.7749 55.5883 62.776H44.2274C42.9168 62.7867 41.6561 62.2987 40.7296 61.4215C39.8026 60.5448 39.2869 59.3524 39.2987 58.1123V52.8214H53.7442C56.4921 52.8191 59.1275 51.786 61.0722 49.9491C63.0169 48.1116 64.1129 45.6196 64.1195 43.0193V28.3045H72.8635C74.1592 28.3045 75.4021 28.7919 76.3186 29.6585C77.235 30.5256 77.7495 31.7017 77.7495 32.9279L77.7496 58.1122Z" fill="#CD1A24"/>
<path d="M32.323 10.4296C29.8003 10.3645 27.3565 11.2675 25.5481 12.9334C23.7396 14.5993 22.7201 16.8865 22.7207 19.2748C22.7207 20.3848 23.672 21.285 24.8451 21.285C26.0187 21.285 26.9694 20.3848 26.9694 19.2748C26.9647 17.9747 27.5201 16.729 28.5076 15.8254C29.488 14.9073 30.8263 14.4154 32.2038 14.4664C33.7237 14.5186 35.1391 15.2101 36.0643 16.3521C36.9895 17.4935 37.328 18.9664 36.9871 20.3687C36.6463 21.771 35.6624 22.9561 34.3027 23.6011C33.0153 24.1923 31.9265 25.1111 31.1582 26.2536C30.3894 27.3967 29.9721 28.7193 29.952 30.0737V30.122V31.071C29.952 32.181 30.9033 33.0812 32.0764 33.0812C33.25 33.0812 34.2007 32.181 34.2007 31.071V30.1539C34.2055 29.5319 34.3957 28.9239 34.749 28.3989C35.1017 27.8744 35.6043 27.4543 36.1976 27.1868C38.7044 26.0112 40.5228 23.8343 41.1529 21.2554C41.7835 18.6758 41.1594 15.965 39.4529 13.8668C37.7465 11.7692 35.1361 10.5049 32.3401 10.4219L32.323 10.4296Z" fill="#CD1A24"/>
<path d="M32.0619 37.3906C30.8882 37.3906 29.9375 38.2903 29.9375 39.4008V40.1328V40.1322C29.9375 41.2428 30.8882 42.1425 32.0619 42.1425C33.2349 42.1425 34.1862 41.2428 34.1862 40.1322V39.4003V39.4008C34.1862 38.8674 33.9622 38.3565 33.5638 37.9796C33.1655 37.6021 32.625 37.3906 32.0619 37.3906Z" fill="#CD1A24"/>
</svg>
