<svg width="0" height="0" class="hidden">
    <symbol fill="none" xmlns="http://www.w3.org/2000/svg" viewBox="0 0 40 40" id="classmates">
        <rect width="40" height="40" rx="17" fill="#F79A38"></rect>
        <path d="M26.2376 22.7928C26.7624 22.2681 26.8373 21.5185 26.3876 20.7689C26.0128 20.1692 25.3381 19.8694 24.5885 20.0193C24.2887 20.0942 23.9888 20.2442 23.689 20.469C21.3652 22.0432 18.2168 21.9683 15.893 20.3941C15.7431 20.3191 15.5932 20.2442 15.4433 20.1692C14.6187 19.7944 13.7941 19.9443 13.3444 20.6939C12.8196 21.4435 12.8946 22.2681 13.5692 22.9428C13.7192 23.0927 13.8691 23.1676 13.944 23.3176L14.019 23.3925C15.0685 24.2171 16.3428 24.7418 17.9919 24.9667L17.0174 25.9412C16.1929 26.7658 15.2933 27.6653 14.4688 28.4899C14.2439 28.7148 13.944 29.0896 13.944 29.6143C13.944 30.2889 14.3188 30.9636 14.9935 31.2634C15.2184 31.4133 15.4433 31.4133 15.6681 31.4133C16.0429 31.4133 16.4927 31.2634 16.7926 30.8886C17.917 29.7642 18.8165 28.8647 19.716 27.9651C19.791 27.8902 19.791 27.8902 19.791 27.8902C19.791 27.8902 19.866 27.8902 19.866 27.9651C20.4656 28.6398 21.1403 29.2395 21.74 29.9141C22.0398 30.214 22.3397 30.5138 22.6395 30.8137C23.0143 31.1885 23.3142 31.3384 23.7639 31.3384C24.4386 31.4134 25.1882 30.9636 25.488 30.2889C25.7879 29.6892 25.638 28.9396 25.1132 28.4899C24.3636 27.7403 23.614 26.9157 22.7894 26.1661L21.5151 24.8917C22.1898 24.8168 22.9394 24.6669 23.614 24.367C24.7384 23.9922 25.563 23.4675 26.2376 22.7928Z" fill="white"></path>
        <path d="M19.791 20.6939C23.0143 20.6939 25.638 18.1452 25.638 14.9219C25.638 13.3477 25.0383 11.8485 23.9138 10.7241C22.7894 9.59969 21.3652 9 19.866 9C16.6426 9 14.094 11.6236 14.019 14.772C14.019 16.3462 14.6187 17.7704 15.7431 18.8948C16.7926 20.0942 18.2168 20.6939 19.791 20.6939ZM18.1419 13.1978C18.5916 12.7481 19.1913 12.5232 19.791 12.5232C21.1403 12.5232 22.1148 13.5726 22.1148 14.847C22.1148 16.1963 21.0653 17.1707 19.791 17.1707C18.4417 17.1707 17.4672 16.1213 17.4672 14.847C17.4672 14.2473 17.6921 13.6476 18.1419 13.1978Z" fill="white"></path>
        <path d="M26.2376 22.7928C26.7624 22.2681 26.8373 21.5185 26.3876 20.7689C26.0128 20.1692 25.3381 19.8694 24.5885 20.0193C24.2887 20.0942 23.9888 20.2442 23.689 20.469C21.3652 22.0432 18.2168 21.9683 15.893 20.3941C15.7431 20.3191 15.5932 20.2442 15.4433 20.1692C14.6187 19.7944 13.7941 19.9443 13.3444 20.6939C12.8196 21.4435 12.8946 22.2681 13.5692 22.9428C13.7192 23.0927 13.8691 23.1676 13.944 23.3176L14.019 23.3925C15.0685 24.2171 16.3428 24.7418 17.9919 24.9667L17.0174 25.9412C16.1929 26.7658 15.2933 27.6653 14.4688 28.4899C14.2439 28.7148 13.944 29.0896 13.944 29.6143C13.944 30.2889 14.3188 30.9636 14.9935 31.2634C15.2184 31.4133 15.4433 31.4133 15.6681 31.4133C16.0429 31.4133 16.4927 31.2634 16.7926 30.8886C17.917 29.7642 18.8165 28.8647 19.716 27.9651C19.791 27.8902 19.791 27.8902 19.791 27.8902C19.791 27.8902 19.866 27.8902 19.866 27.9651C20.4656 28.6398 21.1403 29.2395 21.74 29.9141C22.0398 30.214 22.3397 30.5138 22.6395 30.8137C23.0143 31.1885 23.3142 31.3384 23.7639 31.3384C24.4386 31.4134 25.1882 30.9636 25.488 30.2889C25.7879 29.6892 25.638 28.9396 25.1132 28.4899C24.3636 27.7403 23.614 26.9157 22.7894 26.1661L21.5151 24.8917C22.1898 24.8168 22.9394 24.6669 23.614 24.367C24.7384 23.9922 25.563 23.4675 26.2376 22.7928Z" fill="white"></path>
    </symbol>
    <symbol fill="none" xmlns="http://www.w3.org/2000/svg" viewBox="0 0 37 56" id="construct">
        <path d="M5.5 55L15.5 20.5M35 55L28.2396 36M28.2396 36C28.2396 36 21.8143 38.5257 15.5 36C5.5 32 2 24.5 2 24.5M28.2396 36L23 21M18.5 0V10.5M23 21L22.705 20.1478C21.4766 16.599 16.3764 16.8483 15.5 20.5V20.5M23 21C23 21 23.5 25 19.5 25C15.5 25 15.5 20.5 15.5 20.5" stroke="#CD1A24" stroke-width="4" stroke-linejoin="round"></path>
    </symbol>
    <symbol fill="none" xmlns="http://www.w3.org/2000/svg" viewBox="0 0 79 46" id="iron">
        <path d="M59 21H51V14H34.5V21H27.4676C23.9943 21 20.6914 22.5049 18.4123 25.1259L12 32.5M31.5 2H62.5L76.5 44H2L12 32.5M12 32.5H59" stroke="#CD1A24" stroke-width="4" stroke-linejoin="round"></path>
    </symbol>
    <symbol fill="none" xmlns="http://www.w3.org/2000/svg" viewBox="0 0 22 16" id="mail">
        <rect x="0.5" y="0.5" width="20.76" height="15" rx="0.884083" stroke="white"></rect>
        <path d="M0.962891 1.07812L9.59134 7.93404C10.3475 8.5349 11.4182 8.5349 12.1744 7.93404L20.8029 1.07812" stroke="white" stroke-linecap="round" stroke-linejoin="round"></path>
    </symbol>
    <symbol fill="none" xmlns="http://www.w3.org/2000/svg" viewBox="0 0 82 78" id="question">
        <path d="M72.8651 24.2834H64.1211V9.80989C64.1169 7.20852 63.0221 4.71427 61.0768 2.87507C59.1321 1.03644 56.4957 0.00218132 53.746 2.75201e-05H10.4091C7.65225 -0.00614227 5.00575 1.02532 3.05316 2.86674C1.10072 4.70867 0.00242784 7.2091 0 9.81836V43.0185C0.00652011 45.6243 1.10723 48.1215 3.05908 49.9595C5.01151 51.7976 7.65513 52.8268 10.4091 52.8206H15.618V64.0776C15.6168 64.892 16.1343 65.6261 16.9291 65.938C17.724 66.2499 18.6392 66.0771 19.2466 65.5005L32.5873 52.8205H35.1367V58.1114C35.1391 60.3959 36.0963 62.5873 37.7999 64.2071C39.5035 65.8263 41.8145 66.7423 44.2293 66.7552H54.7148L65.9909 77.4092C66.5984 77.9858 67.5136 78.1585 68.3084 77.8467C69.1032 77.5348 69.6207 76.8001 69.6195 75.9862V66.7552H72.8654C75.2873 66.7529 77.6097 65.8415 79.3221 64.2211C81.0351 62.6008 81.9977 60.4032 82 58.1114V32.9277C81.9976 30.6359 81.035 28.4383 79.3221 26.8179C77.6097 25.1975 75.2873 24.286 72.8654 24.2839L72.8651 24.2834ZM31.7026 48.8009C31.1389 48.7998 30.5977 49.0107 30.1988 49.3876L19.8319 59.1897V50.8111C19.8319 50.2777 19.6079 49.7662 19.2095 49.3893C18.8112 49.0124 18.2713 48.8009 17.7076 48.8009H10.4081C8.7804 48.8093 7.21627 48.2047 6.06046 47.1199C4.90463 46.0352 4.25203 44.5595 4.24793 43.0192V9.81906C4.24793 8.2755 4.89817 6.79641 6.05394 5.70774C7.21036 4.61962 8.77752 4.01269 10.4081 4.02116H53.745C55.3697 4.02116 56.9281 4.63197 58.0774 5.71951C59.2261 6.80651 59.8715 8.2811 59.8715 9.81906V43.0192C59.8674 44.5539 59.2195 46.0245 58.0715 47.1082C56.9227 48.1923 55.3668 48.8009 53.745 48.8009L31.7026 48.8009ZM77.7496 58.1122C77.7496 59.3383 77.2351 60.5144 76.3187 61.3811C75.4023 62.2483 74.1595 62.7357 72.8636 62.7357H67.4934C66.3198 62.7357 65.369 63.6353 65.369 64.7459V71.1787L57.0927 63.3627H57.0921C56.6932 62.9858 56.152 62.7749 55.5883 62.776H44.2274C42.9168 62.7867 41.6561 62.2987 40.7296 61.4215C39.8026 60.5448 39.2869 59.3524 39.2987 58.1123V52.8214H53.7442C56.4921 52.8191 59.1275 51.786 61.0722 49.9491C63.0169 48.1116 64.1129 45.6196 64.1195 43.0193V28.3045H72.8635C74.1592 28.3045 75.4021 28.7919 76.3186 29.6585C77.235 30.5256 77.7495 31.7017 77.7495 32.9279L77.7496 58.1122Z" fill="#CD1A24"></path>
        <path d="M32.323 10.4296C29.8003 10.3645 27.3565 11.2675 25.5481 12.9334C23.7396 14.5993 22.7201 16.8865 22.7207 19.2748C22.7207 20.3848 23.672 21.285 24.8451 21.285C26.0187 21.285 26.9694 20.3848 26.9694 19.2748C26.9647 17.9747 27.5201 16.729 28.5076 15.8254C29.488 14.9073 30.8263 14.4154 32.2038 14.4664C33.7237 14.5186 35.1391 15.2101 36.0643 16.3521C36.9895 17.4935 37.328 18.9664 36.9871 20.3687C36.6463 21.771 35.6624 22.9561 34.3027 23.6011C33.0153 24.1923 31.9265 25.1111 31.1582 26.2536C30.3894 27.3967 29.9721 28.7193 29.952 30.0737V30.122V31.071C29.952 32.181 30.9033 33.0812 32.0764 33.0812C33.25 33.0812 34.2007 32.181 34.2007 31.071V30.1539C34.2055 29.5319 34.3957 28.9239 34.749 28.3989C35.1017 27.8744 35.6043 27.4543 36.1976 27.1868C38.7044 26.0112 40.5228 23.8343 41.1529 21.2554C41.7835 18.6758 41.1594 15.965 39.4529 13.8668C37.7465 11.7692 35.1361 10.5049 32.3401 10.4219L32.323 10.4296Z" fill="#CD1A24"></path>
        <path d="M32.0619 37.3906C30.8882 37.3906 29.9375 38.2903 29.9375 39.4008V40.1328V40.1322C29.9375 41.2428 30.8882 42.1425 32.0619 42.1425C33.2349 42.1425 34.1862 41.2428 34.1862 40.1322V39.4003V39.4008C34.1862 38.8674 33.9622 38.3565 33.5638 37.9796C33.1655 37.6021 32.625 37.3906 32.0619 37.3906Z" fill="#CD1A24"></path>
    </symbol>
    <symbol fill="none" xmlns="http://www.w3.org/2000/svg" viewBox="0 0 40 40" id="vk">
        <rect width="40" height="40" rx="17" fill="#7294C7"></rect>
        <path d="M29.6727 26.1143C29.6727 26.0313 29.5897 26.0313 29.5897 25.9482C29.2576 25.2841 28.5104 24.4538 27.5141 23.5406C27.016 23.1255 26.7669 22.7934 26.6009 22.6273C26.3518 22.2952 26.3518 22.0462 26.4348 21.7141C26.5179 21.465 26.8499 21.0499 27.4311 20.3027C27.7632 19.8876 27.9292 19.6385 28.1783 19.3894C29.4236 17.729 30.0048 16.6497 29.8387 16.1515L29.7557 16.0685C29.6727 15.9855 29.5897 15.9025 29.4236 15.9025C29.2576 15.8194 29.0085 15.8194 28.7595 15.9025H25.6046C25.5216 15.9025 25.5216 15.9025 25.3555 15.9025C25.2725 15.9025 25.1895 15.9025 25.1895 15.9025H25.1065H25.0234L24.9404 15.9855C24.8574 16.0685 24.8574 16.0685 24.8574 16.1515C24.5253 17.0648 24.1102 17.812 23.6951 18.6422C23.446 19.0573 23.1969 19.4725 22.9479 19.8045C22.6988 20.1366 22.5327 20.3857 22.3667 20.5517C22.2006 20.7178 22.0346 20.8008 21.9516 20.9669C21.8685 21.0499 21.7025 21.1329 21.7025 21.0499C21.6195 21.0499 21.5365 21.0499 21.5365 20.9669C21.4534 20.8838 21.3704 20.8008 21.2874 20.7178C21.2044 20.6348 21.2044 20.4687 21.1213 20.3027C21.1213 20.1366 21.1213 19.9706 21.1213 19.8876C21.1213 19.8045 21.1213 19.5555 21.1213 19.3894C21.1213 19.1404 21.1213 18.9743 21.1213 18.8913C21.1213 18.6422 21.1213 18.3101 21.1213 17.978C21.1213 17.6459 21.1213 17.3969 21.1213 17.2308C21.1213 17.0648 21.1213 16.8157 21.1213 16.6497C21.1213 16.4006 21.1213 16.2345 21.1213 16.1515C21.1213 16.0685 21.0383 15.9025 21.0383 15.8194C20.9553 15.7364 20.8723 15.6534 20.7893 15.5704C20.7062 15.4873 20.5402 15.4873 20.4572 15.4043C20.0421 15.3213 19.5439 15.2383 18.9628 15.2383C17.6344 15.2383 16.7211 15.3213 16.389 15.4874C16.223 15.5704 16.057 15.6534 15.9739 15.8194C15.8079 15.9855 15.8079 16.0685 15.8909 16.0685C16.306 16.1515 16.6381 16.3176 16.8042 16.5666L16.8872 16.7327C16.9702 16.8157 16.9702 16.9818 17.0532 17.2308C17.1362 17.4799 17.1362 17.729 17.1362 18.0611C17.1362 18.5592 17.1362 19.0573 17.1362 19.3894C17.1362 19.8045 17.0532 20.0536 17.0532 20.3027C17.0532 20.5517 16.9702 20.7178 16.8872 20.8008C16.8042 20.9669 16.8042 21.0499 16.7211 21.0499C16.7211 21.0499 16.7211 21.1329 16.6381 21.1329C16.5551 21.1329 16.4721 21.2159 16.306 21.2159C16.223 21.2159 16.057 21.1329 15.9739 21.0499C15.8079 20.9669 15.6418 20.8008 15.5588 20.6348C15.3928 20.4687 15.2267 20.2196 15.0607 19.8876C14.8946 19.5555 14.6456 19.2234 14.4795 18.7252L14.3135 18.3932C14.2305 18.2271 14.0644 17.895 13.8984 17.4799C13.7323 17.0648 13.5663 16.7327 13.4002 16.3176C13.3172 16.1515 13.2342 16.0685 13.1512 15.9855H13.0681C13.0681 15.9855 12.9851 15.9025 12.9021 15.9025C12.8191 15.9025 12.736 15.8194 12.653 15.8194H9.66419C9.33209 15.8194 9.16605 15.9025 9.08303 15.9855L9 16.0685C9 16.0685 9 16.1515 9 16.2346C9 16.3176 9.00001 16.4006 9.08303 16.5666C9.49814 17.5629 9.99628 18.5592 10.4944 19.5555C10.9926 20.4687 11.4907 21.299 11.8228 21.8801C12.2379 22.4613 12.57 23.0424 12.9851 23.5406C13.4002 24.0387 13.6493 24.3708 13.7323 24.5368C13.8984 24.7029 13.9814 24.7859 14.0644 24.8689L14.3135 25.118C14.4795 25.2841 14.7286 25.5331 15.0607 25.7822C15.3928 26.0313 15.8079 26.2803 16.223 26.5294C16.6381 26.7785 17.1363 26.9445 17.6344 27.1106C18.2156 27.2766 18.7137 27.3596 19.2118 27.2766H20.4572C20.7062 27.2766 20.8723 27.1936 21.0383 27.0275L21.1213 26.9445C21.1213 26.8615 21.2044 26.8615 21.2044 26.7785C21.2044 26.6954 21.2044 26.6124 21.2044 26.4464C21.2044 26.1143 21.2044 25.8652 21.2874 25.6161C21.3704 25.3671 21.3704 25.201 21.4535 25.035C21.5365 24.8689 21.6195 24.7859 21.7025 24.7029C21.7855 24.6199 21.8686 24.5368 21.8686 24.5368H21.9516C22.1176 24.4538 22.3667 24.5368 22.5327 24.7029C22.7818 24.8689 23.0309 25.118 23.1969 25.3671C23.363 25.6161 23.612 25.8652 23.9441 26.1973C24.2762 26.5294 24.5253 26.7785 24.6913 26.8615L24.9404 27.0275C25.1064 27.1106 25.2725 27.1936 25.5216 27.2766C25.7706 27.3596 25.9367 27.3596 26.1027 27.3596L28.9255 27.2766C29.1746 27.2766 29.4236 27.1936 29.5897 27.1106C29.7557 27.0275 29.8387 26.9445 29.8387 26.7785C29.8387 26.6954 29.8387 26.5294 29.8387 26.4464C29.6727 26.2803 29.6727 26.1973 29.6727 26.1143Z" fill="white"></path>
    </symbol>
    <symbol fill="none" xmlns="http://www.w3.org/2000/svg" viewBox="0 0 89 11" id="webmedia">
        <g opacity="0.6">
        <mask id="path-1-inside-1_529_2461" fill="white">
            <path fill-rule="evenodd" clip-rule="evenodd" d="M5.96439 4.63973L4.55942 8.38209L1.617 0.0655547H0L3.88345 10.2462H5.15584L6.91868 5.68645L8.66827 10.2462H9.94066L13.8241 0.0655547H12.1935L9.26469 8.38209L7.85972 4.63973L9.46346 0.108582H8.07185L6.90543 3.56431L5.75226 0.108582H4.34794L5.96439 4.63973ZM32.5058 5.96597C32.1873 5.50842 31.7374 5.17813 31.2267 5.02688C31.6475 4.82842 31.9982 4.48916 32.2275 4.05899C32.4584 3.63554 32.5796 3.15256 32.5781 2.66091C32.5773 2.34072 32.5257 2.02305 32.4257 1.7217C32.3283 1.41934 32.1825 1.13786 31.995 0.89013C31.8082 0.64534 31.5785 0.443074 31.319 0.295052C31.0454 0.139961 30.7403 0.0610854 30.4314 0.0655547H25.5804V10.2462H30.0737C30.4554 10.2488 30.8353 10.1883 31.2002 10.0669C31.5343 9.95841 31.8467 9.78332 32.1214 9.55067C32.3812 9.32726 32.5936 9.0461 32.7443 8.72622C32.9027 8.38375 32.9823 8.00499 32.9763 7.62212C32.9926 7.02903 32.8272 6.44676 32.5058 5.96597ZM31.3461 7.9161C31.2785 8.09723 31.1795 8.26272 31.0545 8.40366C30.9297 8.5431 30.7812 8.65509 30.617 8.73345C30.446 8.81542 30.2607 8.85697 30.0737 8.85531H27.065V5.74382H30.1665C30.3457 5.74223 30.5228 5.78642 30.6833 5.87279C30.8387 5.95574 30.9764 6.07282 31.0876 6.21657C31.2015 6.36648 31.2911 6.53618 31.3526 6.71847C31.4192 6.91105 31.4529 7.11508 31.4521 7.32067C31.4532 7.52475 31.4172 7.72708 31.3461 7.9161ZM29.8748 1.45652C30.0405 1.45229 30.205 1.48806 30.3563 1.56122C30.5077 1.63438 30.642 1.7431 30.7496 1.87948C30.9858 2.1809 31.1088 2.56721 31.0943 2.962C31.0966 3.16776 31.0629 3.37214 30.9949 3.56431C30.9328 3.73884 30.838 3.89755 30.7164 4.03042C30.5977 4.15898 30.4586 4.26338 30.3056 4.33863C30.1452 4.41643 29.9711 4.45554 29.7953 4.45326H27.065V1.45652H29.8748ZM45.2633 10.2462V0.0655547H43.6723L40.5576 6.289L37.4428 0.0655547H35.8523V10.2462H37.3367V2.91897L40.1467 8.46815H40.9685L43.7652 2.91897V10.2462H45.2633ZM61.3671 10.2462C62.0148 10.2561 62.6582 10.132 63.2628 9.88046C63.807 9.65198 64.2996 9.29994 64.7074 8.84807C65.1142 8.38774 65.4279 7.84084 65.6286 7.24219C65.8526 6.56874 65.9626 5.85715 65.9534 5.14151C65.9574 4.47141 65.8589 3.80522 65.6618 3.16992C65.4781 2.57332 65.1826 2.02415 64.7936 1.55681C64.3943 1.08663 63.9061 0.714958 63.3622 0.467055C62.7299 0.186591 62.0511 0.0499217 61.3679 0.0655547H58.0265V10.2462H61.3666H61.3671ZM64.2433 6.60408C64.1212 7.03253 63.9206 7.42997 63.6534 7.77266C63.3885 8.10587 63.0579 8.37049 62.6859 8.54698C62.2696 8.74036 61.8201 8.83569 61.3671 8.82662H59.5109V1.48509H61.3666C61.8124 1.47667 62.2549 1.56955 62.6655 1.75774C63.0342 1.93069 63.3641 2.18741 63.633 2.51048C63.9058 2.84583 64.111 3.23891 64.2357 3.66472C64.3766 4.142 64.446 4.64062 64.4411 5.14163C64.4454 5.63729 64.3784 6.13065 64.2427 6.60408H64.2433ZM70.3268 10.2462V0.0655547H68.8418V10.2462H70.3262H70.3268ZM72.8051 10.2462H74.3818L75.3626 7.4788H78.9943L79.9883 10.2462H81.5524L77.8412 0.0655547H76.5423L72.8051 10.2462ZM75.6283 6.28864L77.1923 1.91528L78.7032 6.28864H75.6278H75.6283ZM16.1821 0H22.7566V1.4225H16.1821V0ZM16.1821 4.38604H21.9895V5.80855H16.1821V4.38604ZM16.1821 8.77209H22.7566V10.1946H16.1821V8.77209ZM48.7259 0H55.3004V1.4225H48.7259V0ZM48.7259 4.38604H54.5334V5.80855H48.7259V4.38604ZM48.7259 8.77209H55.3004V10.1946H48.7259V8.77209Z"></path>
        </mask>
        <path fill-rule="evenodd" clip-rule="evenodd" d="M5.96439 4.63973L4.55942 8.38209L1.617 0.0655547H0L3.88345 10.2462H5.15584L6.91868 5.68645L8.66827 10.2462H9.94066L13.8241 0.0655547H12.1935L9.26469 8.38209L7.85972 4.63973L9.46346 0.108582H8.07185L6.90543 3.56431L5.75226 0.108582H4.34794L5.96439 4.63973ZM32.5058 5.96597C32.1873 5.50842 31.7374 5.17813 31.2267 5.02688C31.6475 4.82842 31.9982 4.48916 32.2275 4.05899C32.4584 3.63554 32.5796 3.15256 32.5781 2.66091C32.5773 2.34072 32.5257 2.02305 32.4257 1.7217C32.3283 1.41934 32.1825 1.13786 31.995 0.89013C31.8082 0.64534 31.5785 0.443074 31.319 0.295052C31.0454 0.139961 30.7403 0.0610854 30.4314 0.0655547H25.5804V10.2462H30.0737C30.4554 10.2488 30.8353 10.1883 31.2002 10.0669C31.5343 9.95841 31.8467 9.78332 32.1214 9.55067C32.3812 9.32726 32.5936 9.0461 32.7443 8.72622C32.9027 8.38375 32.9823 8.00499 32.9763 7.62212C32.9926 7.02903 32.8272 6.44676 32.5058 5.96597ZM31.3461 7.9161C31.2785 8.09723 31.1795 8.26272 31.0545 8.40366C30.9297 8.5431 30.7812 8.65509 30.617 8.73345C30.446 8.81542 30.2607 8.85697 30.0737 8.85531H27.065V5.74382H30.1665C30.3457 5.74223 30.5228 5.78642 30.6833 5.87279C30.8387 5.95574 30.9764 6.07282 31.0876 6.21657C31.2015 6.36648 31.2911 6.53618 31.3526 6.71847C31.4192 6.91105 31.4529 7.11508 31.4521 7.32067C31.4532 7.52475 31.4172 7.72708 31.3461 7.9161ZM29.8748 1.45652C30.0405 1.45229 30.205 1.48806 30.3563 1.56122C30.5077 1.63438 30.642 1.7431 30.7496 1.87948C30.9858 2.1809 31.1088 2.56721 31.0943 2.962C31.0966 3.16776 31.0629 3.37214 30.9949 3.56431C30.9328 3.73884 30.838 3.89755 30.7164 4.03042C30.5977 4.15898 30.4586 4.26338 30.3056 4.33863C30.1452 4.41643 29.9711 4.45554 29.7953 4.45326H27.065V1.45652H29.8748ZM45.2633 10.2462V0.0655547H43.6723L40.5576 6.289L37.4428 0.0655547H35.8523V10.2462H37.3367V2.91897L40.1467 8.46815H40.9685L43.7652 2.91897V10.2462H45.2633ZM61.3671 10.2462C62.0148 10.2561 62.6582 10.132 63.2628 9.88046C63.807 9.65198 64.2996 9.29994 64.7074 8.84807C65.1142 8.38774 65.4279 7.84084 65.6286 7.24219C65.8526 6.56874 65.9626 5.85715 65.9534 5.14151C65.9574 4.47141 65.8589 3.80522 65.6618 3.16992C65.4781 2.57332 65.1826 2.02415 64.7936 1.55681C64.3943 1.08663 63.9061 0.714958 63.3622 0.467055C62.7299 0.186591 62.0511 0.0499217 61.3679 0.0655547H58.0265V10.2462H61.3666H61.3671ZM64.2433 6.60408C64.1212 7.03253 63.9206 7.42997 63.6534 7.77266C63.3885 8.10587 63.0579 8.37049 62.6859 8.54698C62.2696 8.74036 61.8201 8.83569 61.3671 8.82662H59.5109V1.48509H61.3666C61.8124 1.47667 62.2549 1.56955 62.6655 1.75774C63.0342 1.93069 63.3641 2.18741 63.633 2.51048C63.9058 2.84583 64.111 3.23891 64.2357 3.66472C64.3766 4.142 64.446 4.64062 64.4411 5.14163C64.4454 5.63729 64.3784 6.13065 64.2427 6.60408H64.2433ZM70.3268 10.2462V0.0655547H68.8418V10.2462H70.3262H70.3268ZM72.8051 10.2462H74.3818L75.3626 7.4788H78.9943L79.9883 10.2462H81.5524L77.8412 0.0655547H76.5423L72.8051 10.2462ZM75.6283 6.28864L77.1923 1.91528L78.7032 6.28864H75.6278H75.6283ZM16.1821 0H22.7566V1.4225H16.1821V0ZM16.1821 4.38604H21.9895V5.80855H16.1821V4.38604ZM16.1821 8.77209H22.7566V10.1946H16.1821V8.77209ZM48.7259 0H55.3004V1.4225H48.7259V0ZM48.7259 4.38604H54.5334V5.80855H48.7259V4.38604ZM48.7259 8.77209H55.3004V10.1946H48.7259V8.77209Z" fill="#121213" stroke="white" stroke-width="2" mask="url(#path-1-inside-1_529_2461)"></path>
        </g>
        <path fill-rule="evenodd" clip-rule="evenodd" d="M5.96439 4.63973L4.55942 8.38209L1.617 0.0655547H0L3.88345 10.2462H5.15584L6.91868 5.68645L8.66827 10.2462H9.94066L13.8241 0.0655547H12.1935L9.26469 8.38209L7.85972 4.63973L9.46346 0.108582H8.07185L6.90543 3.56431L5.75226 0.108582H4.34794L5.96439 4.63973ZM32.5058 5.96597C32.1873 5.50842 31.7374 5.17813 31.2267 5.02688C31.6475 4.82842 31.9982 4.48916 32.2275 4.05899C32.4584 3.63554 32.5796 3.15256 32.5781 2.66091C32.5773 2.34072 32.5257 2.02305 32.4257 1.7217C32.3283 1.41934 32.1825 1.13786 31.995 0.89013C31.8082 0.64534 31.5785 0.443074 31.319 0.295052C31.0454 0.139961 30.7403 0.0610854 30.4314 0.0655547H25.5804V10.2462H30.0737C30.4554 10.2488 30.8353 10.1883 31.2002 10.0669C31.5343 9.95841 31.8467 9.78332 32.1214 9.55067C32.3812 9.32725 32.5936 9.0461 32.7443 8.72622C32.9027 8.38375 32.9823 8.00499 32.9763 7.62212C32.9926 7.02903 32.8272 6.44675 32.5058 5.96597ZM31.3461 7.9161C31.2785 8.09723 31.1795 8.26272 31.0545 8.40366C30.9297 8.5431 30.7812 8.65509 30.617 8.73345C30.446 8.81542 30.2607 8.85697 30.0737 8.85531H27.065V5.74382H30.1665C30.3457 5.74223 30.5228 5.78642 30.6833 5.87279C30.8387 5.95574 30.9764 6.07282 31.0876 6.21657C31.2015 6.36648 31.2911 6.53618 31.3526 6.71847C31.4192 6.91105 31.4529 7.11508 31.4521 7.32067C31.4532 7.52475 31.4172 7.72708 31.3461 7.9161ZM29.8748 1.45652C30.0405 1.45229 30.205 1.48806 30.3563 1.56122C30.5077 1.63438 30.642 1.7431 30.7496 1.87948C30.9858 2.1809 31.1088 2.56721 31.0943 2.962C31.0966 3.16776 31.0629 3.37214 30.9949 3.56431C30.9328 3.73884 30.838 3.89755 30.7164 4.03042C30.5977 4.15898 30.4586 4.26339 30.3056 4.33863C30.1452 4.41643 29.9711 4.45554 29.7953 4.45326H27.065V1.45652H29.8748ZM45.2633 10.2462V0.0655547H43.6723L40.5576 6.289L37.4428 0.0655547H35.8523V10.2462H37.3367V2.91897L40.1467 8.46815H40.9685L43.7652 2.91897V10.2462H45.2633ZM61.3671 10.2462C62.0148 10.2561 62.6582 10.132 63.2628 9.88046C63.807 9.65198 64.2996 9.29994 64.7074 8.84807C65.1142 8.38774 65.4279 7.84085 65.6286 7.24219C65.8526 6.56874 65.9626 5.85715 65.9534 5.14151C65.9574 4.47141 65.8589 3.80522 65.6618 3.16992C65.4781 2.57332 65.1826 2.02415 64.7936 1.55681C64.3943 1.08663 63.9061 0.714958 63.3622 0.467055C62.7299 0.186591 62.0511 0.0499217 61.3679 0.0655547H58.0265V10.2462H61.3671ZM64.2433 6.60408C64.1212 7.03253 63.9206 7.42997 63.6534 7.77266C63.3885 8.10587 63.0579 8.37049 62.6859 8.54698C62.2696 8.74036 61.8201 8.83569 61.3671 8.82662H59.5109V1.48509H61.3666C61.8124 1.47667 62.2549 1.56955 62.6655 1.75774C63.0342 1.93069 63.3641 2.18741 63.633 2.51048C63.9058 2.84583 64.111 3.23891 64.2357 3.66472C64.3766 4.142 64.446 4.64062 64.4411 5.14163C64.4454 5.63729 64.379 6.13065 64.2433 6.60408ZM70.3268 10.2462V0.0655547H68.8418V10.2462H70.3268ZM72.8051 10.2462H74.3818L75.3626 7.4788H78.9943L79.9883 10.2462H81.5524L77.8412 0.0655547H76.5423L72.8051 10.2462ZM75.6283 6.28864L77.1923 1.91528L78.7032 6.28864H75.6283ZM16.1821 0H22.7566V1.4225H16.1821V0ZM16.1821 4.38604H21.9895V5.80855H16.1821V4.38604ZM16.1821 8.77209H22.7566V10.1946H16.1821V8.77209ZM48.7259 0H55.3004V1.4225H48.7259V0ZM48.7259 4.38604H54.5334V5.80855H48.7259V4.38604ZM48.7259 8.77209H55.3004V10.1946H48.7259V8.77209Z" fill="white"></path>
        <rect x="86.6582" y="8.19531" width="2.34211" height="2.34211" fill="#FF0000"></rect>
    </symbol>
    <symbol fill="none" xmlns="http://www.w3.org/2000/svg" viewBox="0 0 64 55" id="boiler">
        <path d="M24.3997 1L19.8997 25M30.3997 1V26M35.8997 1L41.3997 25M8.39973 19C8.39973 19 -2.21929 26 3.90013 34C9.25415 40.9994 17.8997 36 17.8997 36C17.8997 36 16.901 53.5 34.4004 52C49.4785 50.7075 45.8997 36 45.8997 36C45.8997 36 55.9004 41 59.9004 34C65.341 24.479 54.8997 18.5 54.8997 18.5" stroke="#CD1A24" stroke-width="4" stroke-linejoin="round"></path>
    </symbol>
    <symbol fill="none" xmlns="http://www.w3.org/2000/svg" viewBox="0 0 11 8" id="checkbox">
        <path d="M1 3.5L4.5 7L10.5 1" stroke="white" stroke-linejoin="round"></path>
    </symbol>
</svg>