<svg width="59" height="67" viewBox="0 0 59 67" fill="none" xmlns="http://www.w3.org/2000/svg">
<g opacity="0.5">
<path d="M49.5602 66.359H7.14947C3.20298 66.359 0 63.1559 0 59.2095V7.14947C0 3.20298 3.20311 0 7.14947 0H36.0716C36.2878 0 36.4905 0.081091 36.6392 0.243279L50.1414 13.7455C50.2901 13.8941 50.3847 14.1104 50.3847 14.3131V29.004C50.3847 29.45 50.0198 29.8149 49.5738 29.8149H12.8805C10.6505 29.8149 8.83951 31.6259 8.83951 33.8559V46.2225C8.83951 48.4525 10.6505 50.2635 12.8805 50.2635H49.5738C50.0198 50.2635 50.3847 50.6284 50.3847 51.0744V65.5491C50.3712 65.9951 50.0198 66.36 49.5602 66.36L49.5602 66.359ZM7.14947 1.60736C4.09501 1.60736 1.62182 4.09415 1.62182 7.13501V59.1951C1.62182 62.2495 4.10861 64.7227 7.14947 64.7227H48.7631V51.8693H12.8805C9.75846 51.8693 7.21768 49.3285 7.21768 46.2064V33.8398C7.21768 30.7178 9.75846 28.177 12.8805 28.177H48.7631V14.6353L35.7342 1.60637H7.14947V1.60736Z" fill="#16171B"/>
<path d="M52.4889 51.9051H12.8894C9.76734 51.9051 7.22656 49.3643 7.22656 46.2423V33.8757C7.22656 30.7537 9.76734 28.2129 12.8894 28.2129H52.4889C55.6109 28.2129 58.1517 30.7537 58.1517 33.8757V46.2423C58.1517 49.3643 55.6109 51.9051 52.4889 51.9051ZM12.8894 29.8348C10.6594 29.8348 8.84838 31.6458 8.84838 33.8758V46.2424C8.84838 48.4724 10.6594 50.2834 12.8894 50.2834H52.4889C54.7189 50.2834 56.5299 48.4724 56.5299 46.2424V33.8758C56.5299 31.6458 54.7189 29.8348 52.4889 29.8348H12.8894Z" fill="#16171B"/>
<path d="M17.6641 45.7658V34.332H21.9754C22.7323 34.332 23.3134 34.3726 23.7188 34.4402C24.273 34.5348 24.746 34.7105 25.1244 34.9672C25.5028 35.224 25.8137 35.6025 26.0435 36.0755C26.2732 36.5485 26.3949 37.0756 26.3949 37.6297C26.3949 38.6028 26.084 39.4272 25.4623 40.103C24.8406 40.7788 23.7189 41.1167 22.1105 41.1167H19.1778V45.7659L17.6641 45.7658ZM19.1778 39.7652H22.1376C23.1107 39.7652 23.8134 39.5759 24.2189 39.2245C24.6244 38.8596 24.8271 38.3461 24.8271 37.6838C24.8271 37.2108 24.7055 36.7918 24.4622 36.4539C24.2189 36.116 23.8946 35.8863 23.5026 35.7781C23.2458 35.7106 22.7728 35.67 22.0971 35.67H19.1643V39.7652L19.1778 39.7652Z" fill="#16171B"/>
<path d="M19.2622 45.817H17.6133V34.248H21.9923C22.7491 34.248 23.3302 34.2886 23.7493 34.3562C24.3169 34.4508 24.8034 34.64 25.1819 34.8968C25.5738 35.1671 25.8847 35.5455 26.1279 36.032C26.3577 36.5051 26.4793 37.0457 26.4793 37.6268C26.4793 38.6134 26.155 39.4649 25.5333 40.1407C24.8981 40.8299 23.7492 41.1678 22.1275 41.1678H19.2623L19.2622 45.817ZM17.7485 45.6819H19.127V41.0326H22.1273C23.7086 41.0326 24.8303 40.6948 25.4385 40.046C26.0467 39.3838 26.344 38.5729 26.344 37.6268C26.344 37.0727 26.2359 36.5591 26.0062 36.0997C25.7764 35.6402 25.4791 35.2752 25.1142 35.0185C24.7492 34.7617 24.2762 34.586 23.7356 34.4914C23.3302 34.4238 22.749 34.3833 22.0057 34.3833H17.7619V45.682L17.7485 45.6819ZM22.1544 39.8163H19.127V35.5861H22.1273C22.8301 35.5861 23.2896 35.6266 23.5599 35.6942C23.9654 35.8023 24.3033 36.0456 24.5466 36.397C24.7898 36.7484 24.925 37.1673 24.925 37.6674C24.925 38.3431 24.7087 38.8837 24.2898 39.2621C23.8708 39.627 23.1545 39.8162 22.1544 39.8162L22.1544 39.8163ZM19.2622 39.6811H22.1544C23.1139 39.6811 23.8033 39.5054 24.1952 39.154C24.5872 38.8026 24.7899 38.3026 24.7899 37.6674C24.7899 37.2078 24.6682 36.8024 24.4385 36.478C24.2087 36.1537 23.8979 35.9374 23.5194 35.8293C23.2762 35.7617 22.8031 35.7347 22.1273 35.7347H19.2621L19.2622 39.6811Z" fill="#16171B"/>
<path d="M28.3203 45.7658V34.332H32.2668C33.1588 34.332 33.8346 34.3861 34.3076 34.4942C34.9564 34.6429 35.524 34.9132 35.9834 35.3186C36.5781 35.8322 37.0376 36.4809 37.335 37.2783C37.6324 38.0756 37.781 38.9677 37.781 39.9948C37.781 40.8598 37.6729 41.6301 37.4702 42.3059C37.2675 42.9817 37.0107 43.5357 36.6863 43.9682C36.3754 44.4142 36.024 44.7521 35.6456 45.0089C35.2672 45.2657 34.8077 45.4549 34.2806 45.59C33.7535 45.7252 33.1318 45.7792 32.4425 45.7792L28.3203 45.7658ZM29.834 44.4142H32.2803C33.0371 44.4142 33.6183 44.3467 34.0507 44.198C34.4832 44.0628 34.8211 43.8601 35.0779 43.6033C35.4293 43.2384 35.7131 42.7654 35.9158 42.1572C36.1185 41.5491 36.2131 40.8192 36.2131 39.9543C36.2131 38.7514 36.0104 37.846 35.632 37.1972C35.2401 36.5485 34.767 36.1296 34.1994 35.9133C33.7939 35.7511 33.1452 35.67 32.2397 35.67H29.834L29.834 44.4142Z" fill="#16171B"/>
<path d="M32.4592 45.817H28.2695V34.248H32.2835C33.1755 34.248 33.8648 34.3021 34.3378 34.4102C35.0136 34.5724 35.5677 34.8427 36.0407 35.2482C36.6489 35.7617 37.1084 36.424 37.4192 37.2349C37.7165 38.0323 37.8787 38.9648 37.8787 39.9784C37.8787 40.8569 37.7706 41.6408 37.5679 42.303C37.3651 42.9787 37.0948 43.5463 36.7705 43.9924C36.4461 44.4385 36.0947 44.7898 35.7163 45.0466C35.3379 45.3033 34.8784 45.4926 34.3242 45.6277C33.7701 45.7493 33.1754 45.8169 32.4591 45.8169L32.4592 45.817ZM28.4047 45.6819H32.4592C33.162 45.6819 33.7567 45.6143 34.2838 45.4927C34.8109 45.3575 35.2704 45.1683 35.6218 44.925C35.9867 44.6817 36.3381 44.3303 36.6489 43.8979C36.9598 43.4654 37.2166 42.9112 37.4193 42.249C37.622 41.5867 37.7166 40.8163 37.7166 39.965C37.7166 38.9648 37.568 38.0593 37.2706 37.2754C36.9733 36.4915 36.5273 35.8564 35.9326 35.3563C35.4731 34.9643 34.9325 34.7076 34.2838 34.5454C33.8242 34.4373 33.1485 34.3832 32.27 34.3832H28.3911V45.6819L28.4047 45.6819ZM32.2971 44.4655H29.7832V35.5861H32.243C33.135 35.5861 33.8108 35.6672 34.2297 35.8294C34.7973 36.0456 35.2974 36.4916 35.7028 37.1539C36.0948 37.8161 36.2975 38.7486 36.2975 39.9516C36.2975 40.8165 36.1894 41.5599 36.0002 42.1816C35.7975 42.7898 35.5136 43.2763 35.1487 43.6547C34.8784 43.925 34.527 44.1278 34.0945 44.2629C33.6485 44.3981 33.0404 44.4656 32.297 44.4656L32.2971 44.4655ZM29.9184 44.3303H32.2971C33.0404 44.3303 33.6216 44.2628 34.0405 44.1276C34.4594 43.9925 34.7973 43.8032 35.0406 43.5465C35.392 43.1951 35.6758 42.7085 35.865 42.1274C36.0678 41.5327 36.1624 40.7894 36.1624 39.9379C36.1624 38.7621 35.9732 37.8566 35.5812 37.2214C35.2028 36.5862 34.7298 36.1673 34.1756 35.9645C33.7702 35.8158 33.1215 35.7347 32.2429 35.7347H29.9048V44.3303L29.9184 44.3303Z" fill="#16171B"/>
<path d="M39.9414 45.7658V34.332H47.6585V35.6836H41.4551V39.2245H46.8341V40.5761H41.4686V45.7659L39.9414 45.7658Z" fill="#16171B"/>
<path d="M41.5395 45.817H39.8906V34.248H47.7429V35.7347H41.5395V39.1404H46.905V40.6271H41.5395V45.817ZM40.0258 45.6819H41.4043V40.492H46.7699V39.2757H41.4043V35.5995H47.6078V34.3832H40.0258V45.6819Z" fill="#16171B"/>
<path d="M48.4099 15.1108H36.057C35.611 15.1108 35.2461 14.7459 35.2461 14.2999V1.58239C35.2461 1.13639 35.611 0.771484 36.057 0.771484C36.503 0.771484 36.8679 1.13639 36.8679 1.58239V13.5028H48.4098C48.8558 13.5028 49.2207 13.8677 49.2207 14.3137C49.2207 14.7597 48.8693 15.1111 48.4098 15.1111L48.4099 15.1108Z" fill="#16171B"/>
</g>
</svg>
