<svg width="576" height="108" viewBox="0 0 576 108" fill="none" xmlns="http://www.w3.org/2000/svg">
<path d="M112.831 32.4415C112.719 43.5809 103.654 52.577 92.4887 52.577H28.125H27.1986L27.8147 53.2688L56.3515 85.3157L56.6619 85.6642L56.9722 85.3156L70.2645 70.3826L70.2649 70.382C73.6126 66.6083 78.4215 64.4572 83.4644 64.4572H102.477L70.3813 100.516L70.381 100.517L70.0386 100.9L70.0383 100.901C62.9134 108.909 50.3993 108.919 43.2644 100.911L42.9324 100.537L42.9322 100.537L4.16655 56.9843L4.16647 56.9842C1.7838 54.3088 0.470922 50.8453 0.470922 47.2602V47.0525C0.470922 39.1133 6.79093 32.6567 14.6768 32.4369V32.4415H15.0923H112.831Z" stroke="#ABABAB" stroke-width="0.831005"/>
<path d="M90.9147 7.54582C86.8707 3.01282 81.085 0.415502 75.0145 0.415502H38.3153C32.2449 0.415502 26.4593 3.01274 22.4152 7.54559L90.9147 7.54582ZM90.9147 7.54582L102.5 20.551H10.8297L22.415 7.54582H90.9147Z" stroke="#ABABAB" stroke-width="0.831005"/>
<path d="M149.94 33.7599C149.94 23.8368 157.917 15.7834 167.811 15.6611V70.0748C167.811 73.2223 170.365 75.7864 173.533 75.7864H234.626V93.7411H168.31C158.165 93.7411 149.94 85.5156 149.94 75.3709V33.7599Z" stroke="#ABABAB" stroke-width="0.831005"/>
<path d="M149.946 33.7599C149.946 23.8368 157.923 15.7834 167.817 15.6611V70.0748C167.817 73.2223 170.371 75.7864 173.539 75.7864H234.632V93.7411H168.316C158.171 93.7411 149.946 85.5156 149.946 75.3709V33.7599Z" stroke="#ABABAB" stroke-width="0.831005"/>
<path d="M348.78 33.7599C348.78 23.8368 356.757 15.7834 366.651 15.6611V70.0748C366.651 73.2229 369.216 75.7864 372.373 75.7864H433.466V93.7411H367.15C357.005 93.7411 348.78 85.5156 348.78 75.3709V33.7599Z" stroke="#ABABAB" stroke-width="0.831005"/>
<path d="M263.031 63.6154H263.446H329.575H329.585L329.595 63.6159C334.281 63.8419 338.406 59.7842 338.641 54.551V34.0403C338.641 23.8853 330.405 15.6596 320.26 15.6596H263.467C253.322 15.6596 245.086 23.8853 245.086 34.0403V75.5994C245.086 85.6195 253.208 93.7411 263.228 93.7411L320.445 93.7411L320.447 93.7411M263.031 63.6154L339.044 75.7864C338.927 86.0115 330.951 94.1154 320.447 94.1566V93.7411M263.031 63.6154V64.0309V70.1371C263.031 73.2644 265.564 75.7864 268.68 75.7864H338.629M263.031 63.6154L338.629 75.7864M320.447 93.7411C330.72 93.7 338.512 85.7836 338.629 75.7864M320.447 93.7411L338.629 75.7864M263.041 37.5399V37.9554H263.051V47.1041V47.5196H263.467H298.837H320.343H320.759V47.1041V37.5399C320.759 34.3819 318.195 31.8178 315.037 31.8178H298.837H268.763C265.605 31.8178 263.041 34.3819 263.041 37.5399Z" stroke="#ABABAB" stroke-width="0.831005"/>
<path d="M461.875 93.6061H443.92V33.8429C443.92 23.8784 451.94 15.7835 461.875 15.6611V93.6061Z" stroke="#ABABAB" stroke-width="0.831005"/>
<path d="M514.954 33.8116H514.539H472.348C472.47 23.876 480.565 15.8569 490.529 15.8569H557.344C567.246 15.8569 575.302 23.7757 575.523 33.6247H575.517V33.8116H533.324H532.909V34.2271V93.7411H514.954V34.2271V33.8116Z" stroke="#ABABAB" stroke-width="0.831005"/>
</svg>
