<svg width="2662" height="77" viewBox="0 0 2662 77" fill="none" xmlns="http://www.w3.org/2000/svg">
<path opacity="0.3" d="M0.151813 1.57266V0.572659H-0.848187V1.57266H0.151813ZM0.151813 75H-0.848187V76H0.151813V75ZM83.4759 75V76H84.4759V75H83.4759ZM83.4759 60.6338H84.4759V59.6338H83.4759V60.6338ZM18.5619 60.6338H17.5619V61.6338H18.5619V60.6338ZM18.5619 1.57266H19.5619V0.572659H18.5619V1.57266ZM-0.848187 1.57266V75H1.15181V1.57266H-0.848187ZM0.151813 76H83.4759V74H0.151813V76ZM84.4759 75V60.6338H82.4759V75H84.4759ZM83.4759 59.6338H18.5619V61.6338H83.4759V59.6338ZM19.5619 60.6338V1.57266H17.5619V60.6338H19.5619ZM18.5619 0.572659H0.151813V2.57266H18.5619V0.572659ZM94.5133 1.57266V0.572659H93.5133V1.57266H94.5133ZM94.5133 75H93.5133V76H94.5133V75ZM180.817 75V76H181.817V75H180.817ZM180.817 61.9108H181.817V60.9108H180.817V61.9108ZM112.923 61.9108H111.923V62.9108H112.923V61.9108ZM112.923 43.9264V42.9264H111.923V43.9264H112.923ZM164.642 43.9264V44.9264H165.642V43.9264H164.642ZM164.642 31.3693H165.642V30.3693H164.642V31.3693ZM112.923 31.3693H111.923V32.3693H112.923V31.3693ZM112.923 14.6619V13.6619H111.923V14.6619H112.923ZM180.391 14.6619V15.6619H181.391V14.6619H180.391ZM180.391 1.57266H181.391V0.572659H180.391V1.57266ZM93.5133 1.57266V75H95.5133V1.57266H93.5133ZM94.5133 76H180.817V74H94.5133V76ZM181.817 75V61.9108H179.817V75H181.817ZM180.817 60.9108H112.923V62.9108H180.817V60.9108ZM113.923 61.9108V43.9264H111.923V61.9108H113.923ZM112.923 44.9264H164.642V42.9264H112.923V44.9264ZM165.642 43.9264V31.3693H163.642V43.9264H165.642ZM164.642 30.3693H112.923V32.3693H164.642V30.3693ZM113.923 31.3693V14.6619H111.923V31.3693H113.923ZM112.923 15.6619H180.391V13.6619H112.923V15.6619ZM181.391 14.6619V1.57266H179.391V14.6619H181.391ZM180.391 0.572659H94.5133V2.57266H180.391V0.572659ZM194.59 1.57266V0.572659H193.59V1.57266H194.59ZM194.59 75H193.59V76H194.59V75ZM277.914 75V76H278.914V75H277.914ZM277.914 60.6338H278.914V59.6338H277.914V60.6338ZM213 60.6338H212V61.6338H213V60.6338ZM213 1.57266H214V0.572659H213V1.57266ZM193.59 1.57266V75H195.59V1.57266H193.59ZM194.59 76H277.914V74H194.59V76ZM278.914 75V60.6338H276.914V75H278.914ZM277.914 59.6338H213V61.6338H277.914V59.6338ZM214 60.6338V1.57266H212V60.6338H214ZM213 0.572659H194.59V2.57266H213V0.572659ZM288.952 1.57266V0.572659H287.952V1.57266H288.952ZM288.952 75H287.952V76H288.952V75ZM307.362 75V76H308.362V75H307.362ZM307.362 1.57266H308.362V0.572659H307.362V1.57266ZM287.952 1.57266V75H289.952V1.57266H287.952ZM288.952 76H307.362V74H288.952V76ZM308.362 75V1.57266H306.362V75H308.362ZM307.362 0.572659H288.952V2.57266H307.362V0.572659ZM359.267 15.9389H360.267V14.9389H359.267V15.9389ZM359.267 75H358.267V76H359.267V75ZM377.677 75V76H378.677V75H377.677ZM377.677 15.9389V14.9389H376.677V15.9389H377.677ZM418.753 15.9389V16.9389H419.753V15.9389H418.753ZM418.753 1.57266H419.753V0.572659H418.753V1.57266ZM318.19 1.57266V0.572659H317.19V1.57266H318.19ZM318.19 15.9389H317.19V16.9389H318.19V15.9389ZM358.267 15.9389V75H360.267V15.9389H358.267ZM359.267 76H377.677V74H359.267V76ZM378.677 75V15.9389H376.677V75H378.677ZM377.677 16.9389H418.753V14.9389H377.677V16.9389ZM419.753 15.9389V1.57266H417.753V15.9389H419.753ZM418.753 0.572659H318.19V2.57266H418.753V0.572659ZM317.19 1.57266V15.9389H319.19V1.57266H317.19ZM318.19 16.9389H359.267V14.9389H318.19V16.9389ZM452.565 41.4788V40.4788H451.565V41.4788H452.565ZM452.565 53.7167H451.565V54.7167H452.565V53.7167ZM536.74 53.7167V54.7167H537.74V53.7167H536.74ZM536.74 41.4788H537.74V40.4788H536.74V41.4788ZM451.565 41.4788V53.7167H453.565V41.4788H451.565ZM452.565 54.7167H536.74V52.7167H452.565V54.7167ZM537.74 53.7167V41.4788H535.74V53.7167H537.74ZM536.74 40.4788H452.565V42.4788H536.74V40.4788ZM627.688 64.9969L626.825 65.5018L627.114 65.9969H627.688V64.9969ZM648.439 64.9969V65.9969H649.014L649.303 65.4997L648.439 64.9969ZM678.342 13.5977H679.342V9.89027L677.478 13.0948L678.342 13.5977ZM678.342 75H677.342V76H678.342V75ZM696.752 75V76H697.752V75H696.752ZM696.752 1.57266H697.752V0.572659H696.752V1.57266ZM668.445 1.57266V0.572659H667.869L667.58 1.0707L668.445 1.57266ZM638.862 52.5461L637.999 53.0521L638.866 54.5303L639.726 53.0481L638.862 52.5461ZM608.959 1.57266L609.821 1.06666L609.531 0.572659H608.959V1.57266ZM581.077 1.57266V0.572659H580.077V1.57266H581.077ZM581.077 75H580.077V76H581.077V75ZM597.678 75V76H598.678V75H597.678ZM597.678 13.7041L598.542 13.1991L596.678 10.0147V13.7041H597.678ZM627.688 65.9969H648.439V63.9969H627.688V65.9969ZM649.303 65.4997L679.206 14.1006L677.478 13.0948L647.575 64.494L649.303 65.4997ZM677.342 13.5977V75H679.342V13.5977H677.342ZM678.342 76H696.752V74H678.342V76ZM697.752 75V1.57266H695.752V75H697.752ZM696.752 0.572659H668.445V2.57266H696.752V0.572659ZM667.58 1.0707L637.997 52.0442L639.726 53.0481L669.31 2.07462L667.58 1.0707ZM639.724 52.0401L609.821 1.06666L608.096 2.07866L637.999 53.0521L639.724 52.0401ZM608.959 0.572659H581.077V2.57266H608.959V0.572659ZM580.077 1.57266V75H582.077V1.57266H580.077ZM581.077 76H597.678V74H581.077V76ZM598.678 75V13.7041H596.678V75H598.678ZM596.815 14.2091L626.825 65.5018L628.551 64.4919L598.542 13.1991L596.815 14.2091ZM750.364 1.57266V0.572659H749.803L749.51 1.05091L750.364 1.57266ZM705.456 75L704.603 74.4782L703.672 76H705.456V75ZM723.334 75V76H723.895L724.187 75.5209L723.334 75ZM734.827 56.1643V55.1643H734.265L733.973 55.6434L734.827 56.1643ZM788.248 56.1643L789.104 55.647L788.812 55.1643H788.248V56.1643ZM799.634 75L798.779 75.5173L799.07 76H799.634V75ZM818.683 75V76H820.464L819.537 74.4792L818.683 75ZM773.882 1.57266L774.735 1.05181L774.443 0.572659H773.882V1.57266ZM742.595 43.3943L741.74 42.8751L740.818 44.3943H742.595V43.3943ZM761.537 12.2143L762.392 11.6951L761.537 10.2883L760.683 11.6951L761.537 12.2143ZM780.479 43.3943V44.3943H782.257L781.334 42.8751L780.479 43.3943ZM749.51 1.05091L704.603 74.4782L706.309 75.5218L751.217 2.09441L749.51 1.05091ZM705.456 76H723.334V74H705.456V76ZM724.187 75.5209L735.68 56.6852L733.973 55.6434L722.48 74.4791L724.187 75.5209ZM734.827 57.1643H788.248V55.1643H734.827V57.1643ZM787.392 56.6816L798.779 75.5173L800.49 74.4827L789.104 55.647L787.392 56.6816ZM799.634 76H818.683V74H799.634V76ZM819.537 74.4792L774.735 1.05181L773.028 2.09351L817.829 75.5208L819.537 74.4792ZM773.882 0.572659H750.364V2.57266H773.882V0.572659ZM743.45 43.9135L762.392 12.7335L760.683 11.6951L741.74 42.8751L743.45 43.9135ZM760.683 12.7335L779.625 43.9135L781.334 42.8751L762.392 11.6951L760.683 12.7335ZM780.479 42.3943H742.595V44.3943H780.479V42.3943ZM827.373 1.57266V0.572659H826.373V1.57266H827.373ZM827.373 75H826.373V76H827.373V75ZM922.722 66.5931L923.343 67.3774L923.343 67.3774L922.722 66.5931ZM922.722 9.87314L923.335 9.08315L923.335 9.08315L922.722 9.87314ZM845.783 60.6338H844.783V61.6338H845.783V60.6338ZM845.783 15.9389V14.9389H844.783V15.9389H845.783ZM908.356 20.5148L908.924 19.6918L908.915 19.6857L908.356 20.5148ZM908.356 55.9515L908.915 56.7806L908.924 56.7744L908.356 55.9515ZM826.373 1.57266V75H828.373V1.57266H826.373ZM827.373 76H891.649V74H827.373V76ZM891.649 76C905.277 76 915.965 73.2134 923.343 67.3774L922.102 65.8088C915.22 71.253 905.05 74 891.649 74V76ZM923.343 67.3774C930.804 61.4754 934.47 51.7548 934.47 38.2863H932.47C932.47 51.422 928.901 60.4307 922.102 65.8088L923.343 67.3774ZM934.47 38.2863C934.47 24.7198 930.808 14.8827 923.335 9.08315L922.109 10.6631C928.897 15.9309 932.47 25.036 932.47 38.2863H934.47ZM923.335 9.08315C915.961 3.35952 905.278 0.572659 891.649 0.572659V2.57266C905.049 2.57266 915.224 5.31945 922.109 10.6631L923.335 9.08315ZM891.649 0.572659H827.373V2.57266H891.649V0.572659ZM889.201 59.6338H845.783V61.6338H889.201V59.6338ZM846.783 60.6338V15.9389H844.783V60.6338H846.783ZM845.783 16.9389H889.201V14.9389H845.783V16.9389ZM889.201 16.9389C897.294 16.9389 903.452 18.4135 907.797 21.3439L908.915 19.6857C904.108 16.4439 897.497 14.9389 889.201 14.9389V16.9389ZM907.788 21.3377C911.895 24.1738 914.06 29.014 914.06 36.2644H916.06C916.06 28.6165 913.756 23.028 908.924 19.6919L907.788 21.3377ZM914.06 36.2644V39.5633H916.06V36.2644H914.06ZM914.06 39.5633C914.06 47.1608 911.879 52.3037 907.788 55.1286L908.924 56.7744C913.772 53.427 916.06 47.5027 916.06 39.5633H914.06ZM907.797 55.1224C903.445 58.0577 897.281 59.6338 889.201 59.6338V61.6338C897.51 61.6338 904.116 60.0174 908.915 56.7805L907.797 55.1224ZM947.819 1.57266V0.572659H946.819V1.57266H947.819ZM947.819 75H946.819V76H947.819V75ZM1034.12 75V76H1035.12V75H1034.12ZM1034.12 61.9108H1035.12V60.9108H1034.12V61.9108ZM966.229 61.9108H965.229V62.9108H966.229V61.9108ZM966.229 43.9264V42.9264H965.229V43.9264H966.229ZM1017.95 43.9264V44.9264H1018.95V43.9264H1017.95ZM1017.95 31.3693H1018.95V30.3693H1017.95V31.3693ZM966.229 31.3693H965.229V32.3693H966.229V31.3693ZM966.229 14.6619V13.6619H965.229V14.6619H966.229ZM1033.7 14.6619V15.6619H1034.7V14.6619H1033.7ZM1033.7 1.57266H1034.7V0.572659H1033.7V1.57266ZM946.819 1.57266V75H948.819V1.57266H946.819ZM947.819 76H1034.12V74H947.819V76ZM1035.12 75V61.9108H1033.12V75H1035.12ZM1034.12 60.9108H966.229V62.9108H1034.12V60.9108ZM967.229 61.9108V43.9264H965.229V61.9108H967.229ZM966.229 44.9264H1017.95V42.9264H966.229V44.9264ZM1018.95 43.9264V31.3693H1016.95V43.9264H1018.95ZM1017.95 30.3693H966.229V32.3693H1017.95V30.3693ZM967.229 31.3693V14.6619H965.229V31.3693H967.229ZM966.229 15.6619H1033.7V13.6619H966.229V15.6619ZM1034.7 14.6619V1.57266H1032.7V14.6619H1034.7ZM1033.7 0.572659H947.819V2.57266H1033.7V0.572659ZM1076.79 1.57266V0.572659H1075.79V1.57266H1076.79ZM1076.79 75H1075.79V76H1076.79V75ZM1095.2 75V76H1096.2V75H1095.2ZM1095.2 46.9061V45.9061H1094.2V46.9061H1095.2ZM1151.49 46.9061V47.9061H1152.49V46.9061H1151.49ZM1151.49 33.1783H1152.49V32.1783H1151.49V33.1783ZM1095.2 33.1783H1094.2V34.1783H1095.2V33.1783ZM1095.2 15.9389V14.9389H1094.2V15.9389H1095.2ZM1162.24 15.9389V16.9389H1163.24V15.9389H1162.24ZM1162.24 1.57266H1163.24V0.572659H1162.24V1.57266ZM1075.79 1.57266V75H1077.79V1.57266H1075.79ZM1076.79 76H1095.2V74H1076.79V76ZM1096.2 75V46.9061H1094.2V75H1096.2ZM1095.2 47.9061H1151.49V45.9061H1095.2V47.9061ZM1152.49 46.9061V33.1783H1150.49V46.9061H1152.49ZM1151.49 32.1783H1095.2V34.1783H1151.49V32.1783ZM1096.2 33.1783V15.9389H1094.2V33.1783H1096.2ZM1095.2 16.9389H1162.24V14.9389H1095.2V16.9389ZM1163.24 15.9389V1.57266H1161.24V15.9389H1163.24ZM1162.24 0.572659H1076.79V2.57266H1162.24V0.572659ZM1170.83 56.1643L1171.72 55.7017L1171.71 55.6937L1170.83 56.1643ZM1182.11 67.9765L1182.63 67.1223L1182.62 67.1174L1182.11 67.9765ZM1200.41 74.3615L1200.6 73.3787L1200.58 73.3763L1200.41 74.3615ZM1250.64 74.3615L1250.47 73.3762L1250.46 73.3788L1250.64 74.3615ZM1269.05 67.9765L1269.56 68.8357L1269.57 68.8307L1269.05 67.9765ZM1280.23 56.1643L1279.34 55.6937L1279.34 55.7017L1280.23 56.1643ZM1269.05 8.59615L1269.57 7.74191L1269.56 7.73705L1269.05 8.59615ZM1250.64 2.10474L1250.83 1.12193L1250.81 1.11953L1250.64 2.10474ZM1200.41 2.10474L1200.24 1.11943L1200.23 1.12203L1200.41 2.10474ZM1182.11 8.59615L1182.62 9.45529L1182.63 9.45035L1182.11 8.59615ZM1170.83 20.4084L1169.94 19.9458L1169.94 19.9458L1170.83 20.4084ZM1255.54 57.6541L1255.97 58.5541L1255.98 58.5514L1255.54 57.6541ZM1195.52 57.6541L1195.96 56.7569L1195.96 56.7569L1195.52 57.6541ZM1195.52 18.9185L1195.96 19.8158L1195.96 19.8158L1195.52 18.9185ZM1255.54 18.9185L1255.99 18.027L1255.98 18.0227L1255.97 18.0186L1255.54 18.9185ZM1166 38.3927C1166 45.5321 1167.3 51.664 1169.95 56.6349L1171.71 55.6937C1169.25 51.0871 1168 45.3004 1168 38.3927H1166ZM1169.94 56.6269C1172.58 61.6912 1176.44 65.7639 1181.6 68.8356L1182.62 67.1174C1177.77 64.2298 1174.18 60.4277 1171.72 55.7017L1169.94 56.6269ZM1181.59 68.8307C1186.62 71.891 1192.81 74.054 1200.24 75.3467L1200.58 73.3763C1193.33 72.115 1187.39 70.0214 1182.63 67.1223L1181.59 68.8307ZM1200.23 75.3442C1207.65 76.7423 1216.01 77.3834 1225.53 77.3834V75.3834C1216.1 75.3834 1207.86 74.7476 1200.6 73.3788L1200.23 75.3442ZM1225.53 77.3834C1235.04 77.3834 1243.41 76.7423 1250.83 75.3442L1250.46 73.3788C1243.19 74.7476 1234.96 75.3834 1225.53 75.3834V77.3834ZM1250.81 75.3467C1258.25 74.0537 1264.43 71.8909 1269.56 68.8356L1268.54 67.1174C1263.66 70.0215 1257.72 72.1153 1250.47 73.3763L1250.81 75.3467ZM1269.57 68.8307C1274.62 65.7601 1278.47 61.6898 1281.11 56.6269L1279.34 55.7017C1276.87 60.4291 1273.28 64.2336 1268.53 67.1223L1269.57 68.8307ZM1281.11 56.6349C1283.76 51.664 1285.06 45.5321 1285.06 38.3927H1283.06C1283.06 45.3004 1281.8 51.0871 1279.34 55.6937L1281.11 56.6349ZM1285.06 38.3927C1285.06 31.1459 1283.76 25.0183 1281.11 19.9458L1279.34 20.8709C1281.8 25.5887 1283.06 31.3798 1283.06 38.3927H1285.06ZM1281.11 19.9458C1278.47 14.8829 1274.62 10.8126 1269.57 7.74195L1268.53 9.45035C1273.28 12.3391 1276.87 16.1436 1279.34 20.8709L1281.11 19.9458ZM1269.56 7.73705C1264.44 4.68235 1258.25 2.52099 1250.83 1.12203L1250.46 3.08745C1257.72 4.45532 1263.66 6.55063 1268.54 9.45525L1269.56 7.73705ZM1250.81 1.11953C1243.4 -0.169427 1235.04 -0.81075 1225.53 -0.81075V1.18925C1234.95 1.18925 1243.2 1.82492 1250.47 3.08995L1250.81 1.11953ZM1225.53 -0.81075C1216.01 -0.81075 1207.65 -0.169427 1200.24 1.11953L1200.58 3.08995C1207.86 1.82492 1216.1 1.18925 1225.53 1.18925V-0.81075ZM1200.23 1.12203C1192.8 2.52062 1186.62 4.6823 1181.59 7.74195L1182.63 9.45035C1187.39 6.55068 1193.34 4.45569 1200.6 3.08745L1200.23 1.12203ZM1181.6 7.73705C1176.44 10.8087 1172.58 14.8814 1169.94 19.9458L1171.72 20.8709C1174.18 16.145 1177.77 12.3429 1182.62 9.45525L1181.6 7.73705ZM1169.94 19.9458C1167.3 25.0183 1166 31.1459 1166 38.3927H1168C1168 31.3798 1169.25 25.5887 1171.72 20.8709L1169.94 19.9458ZM1264.65 40.5211C1264.65 44.4789 1263.82 47.7521 1262.25 50.4129C1260.67 53.0695 1258.3 55.1803 1255.09 56.7569L1255.98 58.5514C1259.48 56.829 1262.16 54.4703 1263.97 51.4336C1265.76 48.4012 1266.65 44.7573 1266.65 40.5211H1264.65ZM1255.1 56.7541C1248.49 59.9564 1238.66 61.6557 1225.53 61.6557V63.6557C1238.78 63.6557 1248.96 61.9497 1255.97 58.5541L1255.1 56.7541ZM1225.53 61.6557C1212.28 61.6557 1202.46 59.9554 1195.96 56.7569L1195.08 58.5514C1201.98 61.9506 1212.17 63.6557 1225.53 63.6557V61.6557ZM1195.96 56.7569C1192.76 55.1803 1190.39 53.0695 1188.81 50.4129C1187.23 47.7521 1186.41 44.4789 1186.41 40.5211H1184.41C1184.41 44.7573 1185.29 48.4012 1187.09 51.4336C1188.89 54.4703 1191.58 56.829 1195.08 58.5514L1195.96 56.7569ZM1186.41 40.5211V35.8388H1184.41V40.5211H1186.41ZM1186.41 35.8388C1186.41 31.9918 1187.23 28.7722 1188.81 26.1367C1190.38 23.5043 1192.75 21.3926 1195.96 19.8158L1195.08 18.0213C1191.58 19.7434 1188.89 22.1011 1187.09 25.1089C1185.29 28.1134 1184.41 31.7045 1184.41 35.8388H1186.41ZM1195.96 19.8158C1202.46 16.6172 1212.28 14.917 1225.53 14.917V12.917C1212.17 12.917 1201.98 14.622 1195.08 18.0213L1195.96 19.8158ZM1225.53 14.917C1238.66 14.917 1248.49 16.6163 1255.1 19.8185L1255.97 18.0186C1248.96 14.623 1238.78 12.917 1225.53 12.917V14.917ZM1255.08 19.8101C1258.29 21.4405 1260.67 23.5809 1262.25 26.2165C1263.83 28.854 1264.65 32.0478 1264.65 35.8388H1266.65C1266.65 31.7549 1265.76 28.1912 1263.96 25.1887C1262.16 22.1842 1259.48 19.8019 1255.99 18.027L1255.08 19.8101ZM1264.65 35.8388V40.5211H1266.65V35.8388H1264.65ZM1298.25 1.57266V0.572659H1297.25V1.57266H1298.25ZM1298.25 75H1297.25V76H1298.25V75ZM1316.66 75V76H1317.66V75H1316.66ZM1316.66 48.8216V47.8216H1315.66V48.8216H1316.66ZM1356.24 48.8216L1357.03 48.2023L1356.73 47.8216H1356.24V48.8216ZM1376.89 75L1376.1 75.6192L1376.4 76H1376.89V75ZM1398.38 75V76H1400.44L1399.17 74.381L1398.38 75ZM1376.99 47.8638L1376.76 46.8906L1375.24 47.2513L1376.21 48.4829L1376.99 47.8638ZM1390.61 39.989L1391.39 40.6188L1391.39 40.6163L1390.61 39.989ZM1388.27 7.53198L1388.93 6.7751L1388.92 6.76662L1388.27 7.53198ZM1374.12 33.1783L1373.41 32.4712L1373.41 32.4712L1374.12 33.1783ZM1316.66 35.9452H1315.66V36.9452H1316.66V35.9452ZM1316.66 14.1298V13.1298H1315.66V14.1298H1316.66ZM1297.25 1.57266V75H1299.25V1.57266H1297.25ZM1298.25 76H1316.66V74H1298.25V76ZM1317.66 75V48.8216H1315.66V75H1317.66ZM1316.66 49.8216H1356.24V47.8216H1316.66V49.8216ZM1355.46 49.4408L1376.1 75.6192L1377.67 74.3808L1357.03 48.2023L1355.46 49.4408ZM1376.89 76H1398.38V74H1376.89V76ZM1399.17 74.381L1377.78 47.2448L1376.21 48.4829L1397.6 75.619L1399.17 74.381ZM1377.22 48.837C1383.23 47.4166 1388.03 44.7695 1391.39 40.6188L1389.84 39.3592C1386.82 43.0833 1382.46 45.5442 1376.76 46.8906L1377.22 48.837ZM1391.39 40.6163C1394.65 36.5695 1396.3 31.3304 1396.3 24.8779H1394.3C1394.3 30.9824 1392.75 35.7465 1389.84 39.3617L1391.39 40.6163ZM1396.3 24.8779C1396.3 17.0992 1393.88 11.049 1388.93 6.77516L1387.62 8.28881C1392.04 12.1026 1394.3 17.5454 1394.3 24.8779H1396.3ZM1388.92 6.76662C1384 2.62799 1377.03 0.572659 1368.27 0.572659V2.57266C1376.74 2.57266 1383.19 4.56116 1387.63 8.29735L1388.92 6.76662ZM1368.27 0.572659H1298.25V2.57266H1368.27V0.572659ZM1375.89 25.7292C1375.89 28.6047 1375 30.8851 1373.41 32.4712L1374.83 33.8855C1376.86 31.8535 1377.89 29.0259 1377.89 25.7292H1375.89ZM1373.41 32.4712C1371.89 33.9901 1368.94 34.9452 1364.22 34.9452V36.9452C1369.08 36.9452 1372.73 35.9848 1374.83 33.8854L1373.41 32.4712ZM1364.22 34.9452H1316.66V36.9452H1364.22V34.9452ZM1317.66 35.9452V14.1298H1315.66V35.9452H1317.66ZM1316.66 15.1298H1364.22V13.1298H1316.66V15.1298ZM1364.22 15.1298C1368.97 15.1298 1371.9 15.9891 1373.41 17.4973L1374.83 16.0831C1372.72 13.9732 1369.06 13.1298 1364.22 13.1298V15.1298ZM1373.41 17.4973C1375.01 19.0901 1375.89 21.2685 1375.89 24.1329H1377.89C1377.89 20.8252 1376.85 18.1084 1374.83 16.0831L1373.41 17.4973ZM1375.89 24.1329V25.7292H1377.89V24.1329H1375.89ZM1439.58 1.57266V0.572659H1438.58V1.57266H1439.58ZM1439.58 75H1438.58V76H1439.58V75ZM1457.99 75V76H1458.99V75H1457.99ZM1457.99 52.8654V51.8654H1456.99V52.8654H1457.99ZM1529.08 45.8419L1528.36 45.143L1528.36 45.143L1529.08 45.8419ZM1514.6 36.3708L1513.88 35.6831L1513.88 35.6831L1514.6 36.3708ZM1457.99 39.4569H1456.99V40.4569H1457.99V39.4569ZM1457.99 14.9811V13.9811H1456.99V14.9811H1457.99ZM1438.58 1.57266V75H1440.58V1.57266H1438.58ZM1439.58 76H1457.99V74H1439.58V76ZM1458.99 75V52.8654H1456.99V75H1458.99ZM1457.99 53.8654H1507.58V51.8654H1457.99V53.8654ZM1507.58 53.8654C1517.4 53.8654 1524.95 51.4933 1529.79 46.5408L1528.36 45.143C1524.05 49.5551 1517.13 51.8654 1507.58 51.8654V53.8654ZM1529.79 46.5408C1534.59 41.6253 1536.89 34.9629 1536.89 26.5805H1534.89C1534.89 34.5863 1532.71 40.6939 1528.36 45.143L1529.79 46.5408ZM1536.89 26.5805C1536.89 18.6085 1534.59 12.2606 1529.77 7.56152L1528.38 8.99227C1532.72 13.2322 1534.89 19.0158 1534.89 26.5805H1536.89ZM1529.77 7.56152C1524.93 2.83291 1517.39 0.572659 1507.58 0.572659V2.57266C1517.14 2.57266 1524.07 4.7819 1528.38 8.99227L1529.77 7.56152ZM1507.58 0.572659H1439.58V2.57266H1507.58V0.572659ZM1516.48 28.1768C1516.48 31.4928 1515.58 33.8864 1513.88 35.6831L1515.33 37.0586C1517.46 34.8114 1518.48 31.8843 1518.48 28.1768H1516.48ZM1513.88 35.6831C1512.24 37.4134 1509.27 38.4569 1504.81 38.4569V40.4569C1509.5 40.4569 1513.14 39.3721 1515.33 37.0586L1513.88 35.6831ZM1504.81 38.4569H1457.99V40.4569H1504.81V38.4569ZM1458.99 39.4569V14.9811H1456.99V39.4569H1458.99ZM1457.99 15.9811H1504.81V13.9811H1457.99V15.9811ZM1504.81 15.9811C1509.17 15.9811 1512.04 16.92 1513.79 18.6679L1515.2 17.2537C1512.91 14.9578 1509.39 13.9811 1504.81 13.9811V15.9811ZM1513.79 18.6679C1515.58 20.462 1516.48 22.8454 1516.48 26.0484H1518.48C1518.48 22.4408 1517.45 19.5034 1515.2 17.2537L1513.79 18.6679ZM1516.48 26.0484V28.1768H1518.48V26.0484H1516.48ZM1548.59 1.57266V0.572659H1547.59V1.57266H1548.59ZM1548.59 75H1547.59V76H1548.59V75ZM1634.9 75V76H1635.9V75H1634.9ZM1634.9 61.9108H1635.9V60.9108H1634.9V61.9108ZM1567 61.9108H1566V62.9108H1567V61.9108ZM1567 43.9264V42.9264H1566V43.9264H1567ZM1618.72 43.9264V44.9264H1619.72V43.9264H1618.72ZM1618.72 31.3693H1619.72V30.3693H1618.72V31.3693ZM1567 31.3693H1566V32.3693H1567V31.3693ZM1567 14.6619V13.6619H1566V14.6619H1567ZM1634.47 14.6619V15.6619H1635.47V14.6619H1634.47ZM1634.47 1.57266H1635.47V0.572659H1634.47V1.57266ZM1547.59 1.57266V75H1549.59V1.57266H1547.59ZM1548.59 76H1634.9V74H1548.59V76ZM1635.9 75V61.9108H1633.9V75H1635.9ZM1634.9 60.9108H1567V62.9108H1634.9V60.9108ZM1568 61.9108V43.9264H1566V61.9108H1568ZM1567 44.9264H1618.72V42.9264H1567V44.9264ZM1619.72 43.9264V31.3693H1617.72V43.9264H1619.72ZM1618.72 30.3693H1567V32.3693H1618.72V30.3693ZM1568 31.3693V14.6619H1566V31.3693H1568ZM1567 15.6619H1634.47V13.6619H1567V15.6619ZM1635.47 14.6619V1.57266H1633.47V14.6619H1635.47ZM1634.47 0.572659H1548.59V2.57266H1634.47V0.572659ZM1648.67 1.57266V0.572659H1647.67V1.57266H1648.67ZM1648.67 75H1647.67V76H1648.67V75ZM1667.08 75V76H1668.08V75H1667.08ZM1667.08 48.8216V47.8216H1666.08V48.8216H1667.08ZM1706.67 48.8216L1707.45 48.2023L1707.15 47.8216H1706.67V48.8216ZM1727.31 75L1726.53 75.6192L1726.83 76H1727.31V75ZM1748.81 75V76H1750.87L1749.59 74.381L1748.81 75ZM1727.42 47.8638L1727.19 46.8906L1725.66 47.2513L1726.63 48.4829L1727.42 47.8638ZM1741.04 39.989L1741.82 40.6188L1741.82 40.6163L1741.04 39.989ZM1738.7 7.53198L1739.35 6.7751L1739.34 6.76662L1738.7 7.53198ZM1724.55 33.1783L1723.84 32.4712L1723.84 32.4712L1724.55 33.1783ZM1667.08 35.9452H1666.08V36.9452H1667.08V35.9452ZM1667.08 14.1298V13.1298H1666.08V14.1298H1667.08ZM1647.67 1.57266V75H1649.67V1.57266H1647.67ZM1648.67 76H1667.08V74H1648.67V76ZM1668.08 75V48.8216H1666.08V75H1668.08ZM1667.08 49.8216H1706.67V47.8216H1667.08V49.8216ZM1705.88 49.4408L1726.53 75.6192L1728.1 74.3808L1707.45 48.2023L1705.88 49.4408ZM1727.31 76H1748.81V74H1727.31V76ZM1749.59 74.381L1728.2 47.2448L1726.63 48.4829L1748.02 75.619L1749.59 74.381ZM1727.65 48.837C1733.66 47.4166 1738.45 44.7695 1741.82 40.6188L1740.26 39.3592C1737.24 43.0833 1732.89 45.5442 1727.19 46.8906L1727.65 48.837ZM1741.82 40.6163C1745.08 36.5695 1746.72 31.3304 1746.72 24.8779H1744.72C1744.72 30.9824 1743.17 35.7465 1740.26 39.3617L1741.82 40.6163ZM1746.72 24.8779C1746.72 17.0992 1744.3 11.049 1739.35 6.77516L1738.05 8.28881C1742.46 12.1026 1744.72 17.5454 1744.72 24.8779H1746.72ZM1739.34 6.76662C1734.42 2.62799 1727.46 0.572659 1718.69 0.572659V2.57266C1727.17 2.57266 1733.61 4.56116 1738.06 8.29735L1739.34 6.76662ZM1718.69 0.572659H1648.67V2.57266H1718.69V0.572659ZM1726.31 25.7292C1726.31 28.6047 1725.43 30.8851 1723.84 32.4712L1725.25 33.8855C1727.29 31.8535 1728.31 29.0259 1728.31 25.7292H1726.31ZM1723.84 32.4712C1722.32 33.9901 1719.37 34.9452 1714.65 34.9452V36.9452C1719.51 36.9452 1723.15 35.9848 1725.25 33.8854L1723.84 32.4712ZM1714.65 34.9452H1667.08V36.9452H1714.65V34.9452ZM1668.08 35.9452V14.1298H1666.08V35.9452H1668.08ZM1667.08 15.1298H1714.65V13.1298H1667.08V15.1298ZM1714.65 15.1298C1719.39 15.1298 1722.33 15.9891 1723.84 17.4973L1725.25 16.0831C1723.14 13.9732 1719.48 13.1298 1714.65 13.1298V15.1298ZM1723.84 17.4973C1725.43 19.0901 1726.31 21.2685 1726.31 24.1329H1728.31C1728.31 20.8252 1727.28 18.1084 1725.25 16.0831L1723.84 17.4973ZM1726.31 24.1329V25.7292H1728.31V24.1329H1726.31ZM1761.12 1.57266V0.572659H1760.12V1.57266H1761.12ZM1761.12 75H1760.12V76H1761.12V75ZM1779.53 75V76H1780.53V75H1779.53ZM1779.53 46.9061V45.9061H1778.53V46.9061H1779.53ZM1835.82 46.9061V47.9061H1836.82V46.9061H1835.82ZM1835.82 33.1783H1836.82V32.1783H1835.82V33.1783ZM1779.53 33.1783H1778.53V34.1783H1779.53V33.1783ZM1779.53 15.9389V14.9389H1778.53V15.9389H1779.53ZM1846.57 15.9389V16.9389H1847.57V15.9389H1846.57ZM1846.57 1.57266H1847.57V0.572659H1846.57V1.57266ZM1760.12 1.57266V75H1762.12V1.57266H1760.12ZM1761.12 76H1779.53V74H1761.12V76ZM1780.53 75V46.9061H1778.53V75H1780.53ZM1779.53 47.9061H1835.82V45.9061H1779.53V47.9061ZM1836.82 46.9061V33.1783H1834.82V46.9061H1836.82ZM1835.82 32.1783H1779.53V34.1783H1835.82V32.1783ZM1780.53 33.1783V15.9389H1778.53V33.1783H1780.53ZM1779.53 16.9389H1846.57V14.9389H1779.53V16.9389ZM1847.57 15.9389V1.57266H1845.57V15.9389H1847.57ZM1846.57 0.572659H1761.12V2.57266H1846.57V0.572659ZM1855.16 56.1643L1856.04 55.7017L1856.04 55.6937L1855.16 56.1643ZM1866.44 67.9765L1866.96 67.1223L1866.95 67.1174L1866.44 67.9765ZM1884.74 74.3615L1884.93 73.3787L1884.91 73.3763L1884.74 74.3615ZM1934.97 74.3615L1934.8 73.3762L1934.78 73.3788L1934.97 74.3615ZM1953.38 67.9765L1953.89 68.8357L1953.9 68.8307L1953.38 67.9765ZM1964.55 56.1643L1963.67 55.6937L1963.67 55.7017L1964.55 56.1643ZM1953.38 8.59615L1953.9 7.74191L1953.89 7.73705L1953.38 8.59615ZM1934.97 2.10474L1935.15 1.12193L1935.14 1.11953L1934.97 2.10474ZM1884.74 2.10474L1884.57 1.11943L1884.56 1.12203L1884.74 2.10474ZM1866.44 8.59615L1866.95 9.45529L1866.96 9.45035L1866.44 8.59615ZM1855.16 20.4084L1854.27 19.9458L1854.27 19.9458L1855.16 20.4084ZM1939.86 57.6541L1940.3 58.5541L1940.31 58.5514L1939.86 57.6541ZM1879.85 57.6541L1880.29 56.7569L1880.29 56.7569L1879.85 57.6541ZM1879.85 18.9185L1880.29 19.8158L1880.29 19.8158L1879.85 18.9185ZM1939.86 18.9185L1940.32 18.027L1940.31 18.0227L1940.3 18.0186L1939.86 18.9185ZM1850.33 38.3927C1850.33 45.5321 1851.62 51.664 1854.27 56.6349L1856.04 55.6937C1853.58 51.0871 1852.33 45.3004 1852.33 38.3927H1850.33ZM1854.27 56.6269C1856.91 61.6912 1860.77 65.7639 1865.93 68.8356L1866.95 67.1174C1862.1 64.2298 1858.51 60.4277 1856.04 55.7017L1854.27 56.6269ZM1865.92 68.8307C1870.95 71.891 1877.14 74.054 1884.57 75.3467L1884.91 73.3763C1877.66 72.115 1871.72 70.0214 1866.96 67.1223L1865.92 68.8307ZM1884.56 75.3442C1891.98 76.7423 1900.34 77.3834 1909.86 77.3834V75.3834C1900.43 75.3834 1892.19 74.7476 1884.93 73.3788L1884.56 75.3442ZM1909.86 77.3834C1919.37 77.3834 1927.73 76.7423 1935.15 75.3442L1934.78 73.3788C1927.52 74.7476 1919.28 75.3834 1909.86 75.3834V77.3834ZM1935.14 75.3467C1942.58 74.0537 1948.76 71.8909 1953.89 68.8356L1952.87 67.1174C1947.99 70.0215 1942.05 72.1153 1934.8 73.3763L1935.14 75.3467ZM1953.9 68.8307C1958.94 65.7601 1962.8 61.6898 1965.44 56.6269L1963.67 55.7017C1961.2 60.4291 1957.61 64.2336 1952.86 67.1223L1953.9 68.8307ZM1965.44 56.6349C1968.09 51.664 1969.38 45.5321 1969.38 38.3927H1967.38C1967.38 45.3004 1966.13 51.0871 1963.67 55.6937L1965.44 56.6349ZM1969.38 38.3927C1969.38 31.1459 1968.09 25.0183 1965.44 19.9458L1963.67 20.8709C1966.13 25.5887 1967.38 31.3798 1967.38 38.3927H1969.38ZM1965.44 19.9458C1962.8 14.8829 1958.94 10.8126 1953.9 7.74195L1952.86 9.45035C1957.61 12.3391 1961.2 16.1436 1963.67 20.8709L1965.44 19.9458ZM1953.89 7.73705C1948.76 4.68235 1942.58 2.52099 1935.15 1.12203L1934.78 3.08745C1942.04 4.45532 1947.99 6.55063 1952.87 9.45525L1953.89 7.73705ZM1935.14 1.11953C1927.73 -0.169427 1919.37 -0.81075 1909.86 -0.81075V1.18925C1919.28 1.18925 1927.52 1.82492 1934.8 3.08995L1935.14 1.11953ZM1909.86 -0.81075C1900.34 -0.81075 1891.98 -0.169427 1884.57 1.11953L1884.91 3.08995C1892.19 1.82492 1900.43 1.18925 1909.86 1.18925V-0.81075ZM1884.56 1.12203C1877.13 2.52062 1870.94 4.6823 1865.92 7.74195L1866.96 9.45035C1871.72 6.55068 1877.66 4.45569 1884.93 3.08745L1884.56 1.12203ZM1865.93 7.73705C1860.77 10.8087 1856.91 14.8814 1854.27 19.9458L1856.04 20.8709C1858.51 16.145 1862.1 12.3429 1866.95 9.45525L1865.93 7.73705ZM1854.27 19.9458C1851.62 25.0183 1850.33 31.1459 1850.33 38.3927H1852.33C1852.33 31.3798 1853.58 25.5887 1856.04 20.8709L1854.27 19.9458ZM1948.97 40.5211C1948.97 44.4789 1948.15 47.7521 1946.57 50.4129C1945 53.0695 1942.63 55.1803 1939.42 56.7569L1940.31 58.5514C1943.81 56.829 1946.49 54.4703 1948.29 51.4336C1950.09 48.4012 1950.97 44.7573 1950.97 40.5211H1948.97ZM1939.43 56.7541C1932.82 59.9564 1922.99 61.6557 1909.86 61.6557V63.6557C1923.11 63.6557 1933.29 61.9497 1940.3 58.5541L1939.43 56.7541ZM1909.86 61.6557C1896.61 61.6557 1886.79 59.9554 1880.29 56.7569L1879.4 58.5514C1886.31 61.9506 1896.5 63.6557 1909.86 63.6557V61.6557ZM1880.29 56.7569C1877.08 55.1803 1874.71 53.0695 1873.14 50.4129C1871.56 47.7521 1870.74 44.4789 1870.74 40.5211H1868.74C1868.74 44.7573 1869.62 48.4012 1871.42 51.4336C1873.22 54.4703 1875.9 56.829 1879.4 58.5514L1880.29 56.7569ZM1870.74 40.5211V35.8388H1868.74V40.5211H1870.74ZM1870.74 35.8388C1870.74 31.9918 1871.56 28.7722 1873.13 26.1367C1874.71 23.5043 1877.08 21.3926 1880.29 19.8158L1879.4 18.0213C1875.9 19.7434 1873.22 22.1011 1871.42 25.1089C1869.62 28.1134 1868.74 31.7045 1868.74 35.8388H1870.74ZM1880.29 19.8158C1886.79 16.6172 1896.61 14.917 1909.86 14.917V12.917C1896.5 12.917 1886.31 14.622 1879.4 18.0213L1880.29 19.8158ZM1909.86 14.917C1922.99 14.917 1932.82 16.6163 1939.43 19.8185L1940.3 18.0186C1933.29 14.623 1923.11 12.917 1909.86 12.917V14.917ZM1939.41 19.8101C1942.62 21.4405 1945 23.5809 1946.58 26.2165C1948.16 28.854 1948.97 32.0478 1948.97 35.8388H1950.97C1950.97 31.7549 1950.09 28.1912 1948.29 25.1887C1946.49 22.1842 1943.81 19.8019 1940.32 18.027L1939.41 19.8101ZM1948.97 35.8388V40.5211H1950.97V35.8388H1948.97ZM1982.57 1.57266V0.572659H1981.57V1.57266H1982.57ZM1982.57 75H1981.57V76H1982.57V75ZM2000.98 75V76H2001.98V75H2000.98ZM2000.98 48.8216V47.8216H1999.98V48.8216H2000.98ZM2040.57 48.8216L2041.36 48.2023L2041.06 47.8216H2040.57V48.8216ZM2061.22 75L2060.43 75.6192L2060.73 76H2061.22V75ZM2082.71 75V76H2084.77L2083.5 74.381L2082.71 75ZM2061.32 47.8638L2061.09 46.8906L2059.57 47.2513L2060.54 48.4829L2061.32 47.8638ZM2074.94 39.989L2075.72 40.6188L2075.72 40.6163L2074.94 39.989ZM2072.6 7.53198L2073.26 6.7751L2073.25 6.76662L2072.6 7.53198ZM2058.45 33.1783L2057.74 32.4712L2057.74 32.4712L2058.45 33.1783ZM2000.98 35.9452H1999.98V36.9452H2000.98V35.9452ZM2000.98 14.1298V13.1298H1999.98V14.1298H2000.98ZM1981.57 1.57266V75H1983.57V1.57266H1981.57ZM1982.57 76H2000.98V74H1982.57V76ZM2001.98 75V48.8216H1999.98V75H2001.98ZM2000.98 49.8216H2040.57V47.8216H2000.98V49.8216ZM2039.79 49.4408L2060.43 75.6192L2062 74.3808L2041.36 48.2023L2039.79 49.4408ZM2061.22 76H2082.71V74H2061.22V76ZM2083.5 74.381L2062.11 47.2448L2060.54 48.4829L2081.93 75.619L2083.5 74.381ZM2061.55 48.837C2067.56 47.4166 2072.35 44.7695 2075.72 40.6188L2074.17 39.3592C2071.15 43.0833 2066.79 45.5442 2061.09 46.8906L2061.55 48.837ZM2075.72 40.6163C2078.98 36.5695 2080.63 31.3304 2080.63 24.8779H2078.63C2078.63 30.9824 2077.08 35.7465 2074.16 39.3617L2075.72 40.6163ZM2080.63 24.8779C2080.63 17.0992 2078.2 11.049 2073.26 6.77516L2071.95 8.28881C2076.36 12.1026 2078.63 17.5454 2078.63 24.8779H2080.63ZM2073.25 6.76662C2068.32 2.62799 2061.36 0.572659 2052.6 0.572659V2.57266C2061.07 2.57266 2067.52 4.56116 2071.96 8.29735L2073.25 6.76662ZM2052.6 0.572659H1982.57V2.57266H2052.6V0.572659ZM2060.22 25.7292C2060.22 28.6047 2059.33 30.8851 2057.74 32.4712L2059.16 33.8855C2061.19 31.8535 2062.22 29.0259 2062.22 25.7292H2060.22ZM2057.74 32.4712C2056.22 33.9901 2053.27 34.9452 2048.55 34.9452V36.9452C2053.41 36.9452 2057.06 35.9848 2059.16 33.8854L2057.74 32.4712ZM2048.55 34.9452H2000.98V36.9452H2048.55V34.9452ZM2001.98 35.9452V14.1298H1999.98V35.9452H2001.98ZM2000.98 15.1298H2048.55V13.1298H2000.98V15.1298ZM2048.55 15.1298C2053.3 15.1298 2056.23 15.9891 2057.74 17.4973L2059.16 16.0831C2057.05 13.9732 2053.38 13.1298 2048.55 13.1298V15.1298ZM2057.74 17.4973C2059.33 19.0901 2060.22 21.2685 2060.22 24.1329H2062.22C2062.22 20.8252 2061.18 18.1084 2059.16 16.0831L2057.74 17.4973ZM2060.22 24.1329V25.7292H2062.22V24.1329H2060.22ZM2141.63 64.9969L2140.76 65.5018L2141.05 65.9969H2141.63V64.9969ZM2162.38 64.9969V65.9969H2162.95L2163.24 65.4997L2162.38 64.9969ZM2192.28 13.5977H2193.28V9.89027L2191.42 13.0948L2192.28 13.5977ZM2192.28 75H2191.28V76H2192.28V75ZM2210.69 75V76H2211.69V75H2210.69ZM2210.69 1.57266H2211.69V0.572659H2210.69V1.57266ZM2182.39 1.57266V0.572659H2181.81L2181.52 1.0707L2182.39 1.57266ZM2152.8 52.5461L2151.94 53.0521L2152.81 54.5303L2153.67 53.0481L2152.8 52.5461ZM2122.9 1.57266L2123.76 1.06666L2123.47 0.572659H2122.9V1.57266ZM2095.02 1.57266V0.572659H2094.02V1.57266H2095.02ZM2095.02 75H2094.02V76H2095.02V75ZM2111.62 75V76H2112.62V75H2111.62ZM2111.62 13.7041L2112.48 13.1991L2110.62 10.0147V13.7041H2111.62ZM2141.63 65.9969H2162.38V63.9969H2141.63V65.9969ZM2163.24 65.4997L2193.15 14.1006L2191.42 13.0948L2161.51 64.494L2163.24 65.4997ZM2191.28 13.5977V75H2193.28V13.5977H2191.28ZM2192.28 76H2210.69V74H2192.28V76ZM2211.69 75V1.57266H2209.69V75H2211.69ZM2210.69 0.572659H2182.39V2.57266H2210.69V0.572659ZM2181.52 1.0707L2151.94 52.0442L2153.67 53.0481L2183.25 2.07462L2181.52 1.0707ZM2153.66 52.0401L2123.76 1.06666L2122.04 2.07866L2151.94 53.0521L2153.66 52.0401ZM2122.9 0.572659H2095.02V2.57266H2122.9V0.572659ZM2094.02 1.57266V75H2096.02V1.57266H2094.02ZM2095.02 76H2111.62V74H2095.02V76ZM2112.62 75V13.7041H2110.62V75H2112.62ZM2110.76 14.2091L2140.76 65.5018L2142.49 64.4919L2112.48 13.1991L2110.76 14.2091ZM2264.3 1.57266V0.572659H2263.74L2263.45 1.05091L2264.3 1.57266ZM2219.4 75L2218.54 74.4782L2217.61 76H2219.4V75ZM2237.27 75V76H2237.84L2238.13 75.5209L2237.27 75ZM2248.77 56.1643V55.1643H2248.21L2247.91 55.6434L2248.77 56.1643ZM2302.19 56.1643L2303.04 55.647L2302.75 55.1643H2302.19V56.1643ZM2313.57 75L2312.72 75.5173L2313.01 76H2313.57V75ZM2332.62 75V76H2334.4L2333.48 74.4792L2332.62 75ZM2287.82 1.57266L2288.68 1.05181L2288.38 0.572659H2287.82V1.57266ZM2256.54 43.3943L2255.68 42.8751L2254.76 44.3943H2256.54V43.3943ZM2275.48 12.2143L2276.33 11.6951L2275.48 10.2883L2274.62 11.6951L2275.48 12.2143ZM2294.42 43.3943V44.3943H2296.2L2295.27 42.8751L2294.42 43.3943ZM2263.45 1.05091L2218.54 74.4782L2220.25 75.5218L2265.16 2.09441L2263.45 1.05091ZM2219.4 76H2237.27V74H2219.4V76ZM2238.13 75.5209L2249.62 56.6852L2247.91 55.6434L2236.42 74.4791L2238.13 75.5209ZM2248.77 57.1643H2302.19V55.1643H2248.77V57.1643ZM2301.33 56.6816L2312.72 75.5173L2314.43 74.4827L2303.04 55.647L2301.33 56.6816ZM2313.57 76H2332.62V74H2313.57V76ZM2333.48 74.4792L2288.68 1.05181L2286.97 2.09351L2331.77 75.5208L2333.48 74.4792ZM2287.82 0.572659H2264.3V2.57266H2287.82V0.572659ZM2257.39 43.9135L2276.33 12.7335L2274.62 11.6951L2255.68 42.8751L2257.39 43.9135ZM2274.62 12.7335L2293.56 43.9135L2295.27 42.8751L2276.33 11.6951L2274.62 12.7335ZM2294.42 42.3943H2256.54V44.3943H2294.42V42.3943ZM2341.31 1.57266V0.572659H2340.31V1.57266H2341.31ZM2341.31 75H2340.31V76H2341.31V75ZM2357.91 75V76H2358.91V75H2357.91ZM2357.91 15.5132L2358.63 14.8198L2356.91 13.0321V15.5132H2357.91ZM2415.17 75L2414.45 75.6934L2414.74 76H2415.17V75ZM2440.39 75V76H2441.39V75H2440.39ZM2440.39 1.57266H2441.39V0.572659H2440.39V1.57266ZM2423.68 1.57266V0.572659H2422.68V1.57266H2423.68ZM2423.68 60.6338L2422.96 61.3278L2424.68 63.1121V60.6338H2423.68ZM2366.75 1.57266L2367.47 0.878643L2367.17 0.572659H2366.75V1.57266ZM2340.31 1.57266V75H2342.31V1.57266H2340.31ZM2341.31 76H2357.91V74H2341.31V76ZM2358.91 75V15.5132H2356.91V75H2358.91ZM2357.19 16.2067L2414.45 75.6934L2415.89 74.3066L2358.63 14.8198L2357.19 16.2067ZM2415.17 76H2440.39V74H2415.17V76ZM2441.39 75V1.57266H2439.39V75H2441.39ZM2440.39 0.572659H2423.68V2.57266H2440.39V0.572659ZM2422.68 1.57266V60.6338H2424.68V1.57266H2422.68ZM2424.4 59.9398L2367.47 0.878643L2366.03 2.26667L2422.96 61.3278L2424.4 59.9398ZM2366.75 0.572659H2341.31V2.57266H2366.75V0.572659ZM2469.07 68.0829L2469.59 67.2306L2469.59 67.2306L2469.07 68.0829ZM2486.42 74.3615L2486.62 73.3815L2486.61 73.3797L2486.6 73.3781L2486.42 74.3615ZM2546.86 70.3177L2546.46 69.4007L2546.45 69.4048L2546.86 70.3177ZM2562.93 50.4178L2563.91 50.5987L2564.13 49.4178H2562.93V50.4178ZM2544.52 50.4178V49.4178H2543.84L2543.59 50.0534L2544.52 50.4178ZM2532.92 60.2081L2532.66 59.2434L2532.66 59.2434L2532.92 60.2081ZM2494.5 61.5915L2494.34 62.5785L2494.34 62.5785L2494.5 61.5915ZM2475.56 50.9499L2476.43 50.4537L2476.43 50.4469L2476.42 50.4401L2475.56 50.9499ZM2475.67 25.6228L2474.81 25.1038L2474.81 25.1038L2475.67 25.6228ZM2483.12 18.4929L2482.63 17.6172L2482.62 17.6229L2483.12 18.4929ZM2494.61 14.8747L2494.47 13.8843L2494.46 13.8859L2494.45 13.8877L2494.61 14.8747ZM2533.67 16.6838L2533.96 15.7284L2533.96 15.7284L2533.67 16.6838ZM2544.41 27.7511L2543.44 27.9936L2543.63 28.7511H2544.41V27.7511ZM2562.82 27.7511V28.7511H2563.97L2563.81 27.6155L2562.82 27.7511ZM2547.18 6.3614L2547.6 5.4525L2547.59 5.45067L2547.18 6.3614ZM2486.42 2.21116L2486.61 3.19175L2486.62 3.19115L2486.42 2.21116ZM2469.07 8.80898L2468.53 7.96532L2468.53 7.96961L2468.52 7.97402L2469.07 8.80898ZM2458.32 20.7276L2457.43 20.2804L2457.42 20.2881L2458.32 20.7276ZM2453.6 38.8184C2453.6 45.8537 2454.9 51.9772 2457.43 56.9387L2459.21 56.0284C2456.85 51.4124 2455.6 45.6173 2455.6 38.8184H2453.6ZM2457.43 56.9387C2459.96 61.8908 2463.71 65.9658 2468.55 68.9353L2469.59 67.2306C2465.07 64.4536 2461.58 60.6537 2459.21 56.0284L2457.43 56.9387ZM2468.55 68.9353C2473.35 71.8845 2479.22 74.05 2486.23 75.3449L2486.6 73.3781C2479.78 72.119 2474.15 70.0278 2469.59 67.2306L2468.55 68.9353ZM2486.22 75.3415C2493.11 76.7419 2500.95 77.3834 2509.72 77.3834V75.3834C2501.04 75.3834 2493.34 74.748 2486.62 73.3815L2486.22 75.3415ZM2509.72 77.3834C2525.43 77.3834 2538.04 75.3558 2547.27 71.2306L2546.45 69.4048C2537.59 73.3672 2525.3 75.3834 2509.72 75.3834V77.3834ZM2547.26 71.2346C2556.6 67.1681 2562.15 60.1932 2563.91 50.5987L2561.95 50.2369C2560.31 59.1588 2555.21 65.5925 2546.46 69.4008L2547.26 71.2346ZM2562.93 49.4178H2544.52V51.4178H2562.93V49.4178ZM2543.59 50.0534C2541.8 54.6155 2538.25 57.7188 2532.66 59.2434L2533.18 61.1729C2539.3 59.5049 2543.41 56.0104 2545.45 50.7822L2543.59 50.0534ZM2532.66 59.2434C2526.92 60.8077 2519.36 61.6557 2509.72 61.6557V63.6557C2519.45 63.6557 2527.21 62.801 2533.18 61.1729L2532.66 59.2434ZM2509.72 61.6557C2504.12 61.6557 2499.17 61.3383 2494.66 60.6045L2494.34 62.5785C2498.99 63.3346 2504.05 63.6557 2509.72 63.6557V61.6557ZM2494.66 60.6045C2490.16 59.8715 2486.44 58.7275 2483.38 57.091L2482.43 58.8557C2485.75 60.6246 2489.69 61.8218 2494.34 62.5785L2494.66 60.6045ZM2483.38 57.091C2480.34 55.472 2478.03 53.2607 2476.43 50.4537L2474.69 51.446C2476.49 54.5984 2479.08 57.0694 2482.43 58.8557L2483.38 57.091ZM2476.42 50.4401C2474.84 47.7649 2474.01 44.2314 2474.01 39.989H2472.01C2472.01 44.4727 2472.88 48.3884 2474.7 51.4597L2476.42 50.4401ZM2474.01 39.989V37.0093H2472.01V39.989H2474.01ZM2474.01 37.0093C2474.01 32.5475 2474.84 28.915 2476.52 26.1418L2474.81 25.1038C2472.88 28.2899 2472.01 32.3194 2472.01 37.0093H2474.01ZM2476.52 26.1418C2478.24 23.3161 2480.56 21.0925 2483.61 19.3629L2482.62 17.6229C2479.29 19.5114 2476.72 21.9701 2474.81 25.1038L2476.52 26.1418ZM2483.6 19.3685C2486.55 17.739 2490.26 16.5953 2494.77 15.8617L2494.45 13.8877C2489.8 14.644 2485.85 15.8415 2482.63 17.6173L2483.6 19.3685ZM2494.75 15.8651C2499.27 15.2341 2504.23 14.917 2509.72 14.917V12.917C2504.15 12.917 2499.1 13.2384 2494.47 13.8843L2494.75 15.8651ZM2509.72 14.917C2519.78 14.917 2527.65 15.8716 2533.37 17.6392L2533.96 15.7284C2527.97 13.8778 2519.88 12.917 2509.72 12.917V14.917ZM2533.37 17.6392C2538.9 19.3491 2542.15 22.8126 2543.44 27.9936L2545.38 27.5086C2543.91 21.6223 2540.13 17.6366 2533.96 15.7284L2533.37 17.6392ZM2544.41 28.7511H2562.82V26.7511H2544.41V28.7511ZM2563.81 27.6155C2562.39 17.1774 2556.96 9.74974 2547.6 5.4525L2546.76 7.2703C2555.49 11.2736 2560.49 18.1057 2561.83 27.8867L2563.81 27.6155ZM2547.59 5.45067C2538.26 1.21663 2525.64 -0.81075 2509.72 -0.81075V1.18925C2525.51 1.18925 2537.8 3.20569 2546.77 7.27213L2547.59 5.45067ZM2509.72 -0.81075C2500.95 -0.81075 2493.11 -0.169204 2486.22 1.23117L2486.62 3.19115C2493.34 1.8247 2501.04 1.18925 2509.72 1.18925V-0.81075ZM2486.22 1.23058C2479.21 2.63356 2473.34 4.90773 2468.53 7.96532L2469.61 9.65264C2474.17 6.75091 2479.79 4.5556 2486.61 3.19174L2486.22 1.23058ZM2468.52 7.97402C2463.7 11.1489 2459.96 15.2155 2457.43 20.2804L2459.22 21.1748C2461.58 16.4494 2465.07 12.6412 2469.62 9.64394L2468.52 7.97402ZM2457.42 20.2881C2454.9 25.4528 2453.6 31.5685 2453.6 38.8184H2455.6C2455.6 31.8086 2456.85 26.0056 2459.22 21.1672L2457.42 20.2881ZM2575.55 1.57266V0.572659H2574.55V1.57266H2575.55ZM2575.55 75H2574.55V76H2575.55V75ZM2661.86 75V76H2662.86V75H2661.86ZM2661.86 61.9108H2662.86V60.9108H2661.86V61.9108ZM2593.96 61.9108H2592.96V62.9108H2593.96V61.9108ZM2593.96 43.9264V42.9264H2592.96V43.9264H2593.96ZM2645.68 43.9264V44.9264H2646.68V43.9264H2645.68ZM2645.68 31.3693H2646.68V30.3693H2645.68V31.3693ZM2593.96 31.3693H2592.96V32.3693H2593.96V31.3693ZM2593.96 14.6619V13.6619H2592.96V14.6619H2593.96ZM2661.43 14.6619V15.6619H2662.43V14.6619H2661.43ZM2661.43 1.57266H2662.43V0.572659H2661.43V1.57266ZM2574.55 1.57266V75H2576.55V1.57266H2574.55ZM2575.55 76H2661.86V74H2575.55V76ZM2662.86 75V61.9108H2660.86V75H2662.86ZM2661.86 60.9108H2593.96V62.9108H2661.86V60.9108ZM2594.96 61.9108V43.9264H2592.96V61.9108H2594.96ZM2593.96 44.9264H2645.68V42.9264H2593.96V44.9264ZM2646.68 43.9264V31.3693H2644.68V43.9264H2646.68ZM2645.68 30.3693H2593.96V32.3693H2645.68V30.3693ZM2594.96 31.3693V14.6619H2592.96V31.3693H2594.96ZM2593.96 15.6619H2661.43V13.6619H2593.96V15.6619ZM2662.43 14.6619V1.57266H2660.43V14.6619H2662.43ZM2661.43 0.572659H2575.55V2.57266H2661.43V0.572659Z" fill="#16171B"/>
</svg>
