<svg width="45" height="43" viewBox="0 0 45 43" fill="none" xmlns="http://www.w3.org/2000/svg">
<path d="M6.14388 12.6738C2.85522 12.6738 0.191406 15.3376 0.191406 18.6263V18.7085C0.191406 20.1679 0.725813 21.5779 1.69597 22.6672L17.0417 39.908L17.1732 40.056C20.0631 43.2995 25.1318 43.2953 28.0176 40.0519L28.1532 39.8998L41.1023 25.3516H33.2095C31.1664 25.3516 29.2179 26.2231 27.8613 27.7523L22.5995 33.6637L11.303 20.9777H36.7818C41.3202 20.9777 44.9994 17.2985 44.9994 12.7602V12.6779H6.14388V12.6738Z" fill="#CD1A24"/>
<path d="M36.2817 2.87758C34.6497 1.04826 32.3147 0 29.8647 0H15.3371C12.887 0 10.5521 1.04826 8.92006 2.87758L4.08984 8.29975H41.1119L36.2817 2.87758Z" fill="#CD1A24"/>
</svg>
