<svg width="215" height="41" viewBox="0 0 215 41" fill="none" xmlns="http://www.w3.org/2000/svg">
<path d="M5.61381 11.9531C2.51226 11.9531 0 14.4654 0 17.5669V17.6445C0 19.0208 0.504002 20.3506 1.41896 21.378L15.8916 37.6379L16.0156 37.7774C18.7411 40.8363 23.5214 40.8325 26.243 37.7735L26.3709 37.6301L38.5833 23.9096H31.1396C29.2127 23.9096 27.3751 24.7315 26.0957 26.1737L21.1332 31.7488L10.4794 19.7845H34.5086C38.7888 19.7845 42.2586 16.3147 42.2586 12.0345V11.957H5.61381V11.9531Z" fill="white"/>
<path d="M34.0361 2.71386C32.497 0.98862 30.2949 0 27.9842 0H14.2831C11.9724 0 9.77033 0.98862 8.23119 2.71386L3.67578 7.82754H38.5915L34.0361 2.71386Z" fill="white"/>
<path d="M62.7831 26.1616V5.69141H62.7134C58.8946 5.69141 55.8008 8.7852 55.8008 12.604V28.1389C55.8008 32.012 58.9411 35.1523 62.8142 35.1523H87.7274V28.1389H64.7643C63.6671 28.1389 62.7831 27.2511 62.7831 26.1616Z" fill="white"/>
<path d="M62.7851 26.1616V5.69141H62.7153C58.8965 5.69141 55.8027 8.7852 55.8027 12.604V28.1389C55.8027 32.012 58.9431 35.1523 62.8161 35.1523H87.7293V28.1389H64.7662C63.669 28.1389 62.7851 27.2511 62.7851 26.1616Z" fill="white"/>
<path d="M137.018 26.1616V5.69141H136.948C133.129 5.69141 130.035 8.7852 130.035 12.604V28.1389C130.035 32.012 133.175 35.1523 137.049 35.1523H161.962V28.1389H138.999C137.905 28.1389 137.018 27.2511 137.018 26.1616Z" fill="white"/>
<path d="M126.56 20.3695V12.7087C126.56 8.83173 123.416 5.69141 119.543 5.69141H98.3395C94.4665 5.69141 91.3223 8.83173 91.3223 12.7087V28.2242C91.3223 32.0507 94.4238 35.1523 98.2504 35.1523H119.612C123.563 35.1368 126.556 32.0662 126.556 28.2087V28.1389H100.286C99.208 28.1389 98.3318 27.2666 98.3318 26.1849V23.9053H123.02C124.869 23.9944 126.471 22.3971 126.56 20.3695ZM98.3357 14.0152C98.3357 12.9219 99.2235 12.0341 100.317 12.0341H111.544H117.592C118.686 12.0341 119.574 12.9219 119.574 14.0152V17.5859H111.544H98.3395V14.0152H98.3357Z" fill="white"/>
<path d="M172.568 35.1019H165.555V12.635C165.555 8.80071 168.664 5.69141 172.498 5.69141H172.568V35.1019Z" fill="white"/>
<path d="M214.997 12.7092C214.997 8.87493 211.888 5.76562 208.054 5.76562H183.11C179.275 5.76562 176.166 8.87493 176.166 12.7092V12.779H192.073V35.1528H199.086V12.779H214.994V12.7092H214.997Z" fill="white"/>
</svg>
