<svg width="40" height="40" viewBox="0 0 40 40" fill="none" xmlns="http://www.w3.org/2000/svg">
<rect width="40" height="40" rx="17" fill="#7294C7"/>
<path d="M29.6727 26.1143C29.6727 26.0313 29.5897 26.0313 29.5897 25.9482C29.2576 25.2841 28.5104 24.4538 27.5141 23.5406C27.016 23.1255 26.7669 22.7934 26.6009 22.6273C26.3518 22.2952 26.3518 22.0462 26.4348 21.7141C26.5179 21.465 26.8499 21.0499 27.4311 20.3027C27.7632 19.8876 27.9292 19.6385 28.1783 19.3894C29.4236 17.729 30.0048 16.6497 29.8387 16.1515L29.7557 16.0685C29.6727 15.9855 29.5897 15.9025 29.4236 15.9025C29.2576 15.8194 29.0085 15.8194 28.7595 15.9025H25.6046C25.5216 15.9025 25.5216 15.9025 25.3555 15.9025C25.2725 15.9025 25.1895 15.9025 25.1895 15.9025H25.1065H25.0234L24.9404 15.9855C24.8574 16.0685 24.8574 16.0685 24.8574 16.1515C24.5253 17.0648 24.1102 17.812 23.6951 18.6422C23.446 19.0573 23.1969 19.4725 22.9479 19.8045C22.6988 20.1366 22.5327 20.3857 22.3667 20.5517C22.2006 20.7178 22.0346 20.8008 21.9516 20.9669C21.8685 21.0499 21.7025 21.1329 21.7025 21.0499C21.6195 21.0499 21.5365 21.0499 21.5365 20.9669C21.4534 20.8838 21.3704 20.8008 21.2874 20.7178C21.2044 20.6348 21.2044 20.4687 21.1213 20.3027C21.1213 20.1366 21.1213 19.9706 21.1213 19.8876C21.1213 19.8045 21.1213 19.5555 21.1213 19.3894C21.1213 19.1404 21.1213 18.9743 21.1213 18.8913C21.1213 18.6422 21.1213 18.3101 21.1213 17.978C21.1213 17.6459 21.1213 17.3969 21.1213 17.2308C21.1213 17.0648 21.1213 16.8157 21.1213 16.6497C21.1213 16.4006 21.1213 16.2345 21.1213 16.1515C21.1213 16.0685 21.0383 15.9025 21.0383 15.8194C20.9553 15.7364 20.8723 15.6534 20.7893 15.5704C20.7062 15.4873 20.5402 15.4873 20.4572 15.4043C20.0421 15.3213 19.5439 15.2383 18.9628 15.2383C17.6344 15.2383 16.7211 15.3213 16.389 15.4874C16.223 15.5704 16.057 15.6534 15.9739 15.8194C15.8079 15.9855 15.8079 16.0685 15.8909 16.0685C16.306 16.1515 16.6381 16.3176 16.8042 16.5666L16.8872 16.7327C16.9702 16.8157 16.9702 16.9818 17.0532 17.2308C17.1362 17.4799 17.1362 17.729 17.1362 18.0611C17.1362 18.5592 17.1362 19.0573 17.1362 19.3894C17.1362 19.8045 17.0532 20.0536 17.0532 20.3027C17.0532 20.5517 16.9702 20.7178 16.8872 20.8008C16.8042 20.9669 16.8042 21.0499 16.7211 21.0499C16.7211 21.0499 16.7211 21.1329 16.6381 21.1329C16.5551 21.1329 16.4721 21.2159 16.306 21.2159C16.223 21.2159 16.057 21.1329 15.9739 21.0499C15.8079 20.9669 15.6418 20.8008 15.5588 20.6348C15.3928 20.4687 15.2267 20.2196 15.0607 19.8876C14.8946 19.5555 14.6456 19.2234 14.4795 18.7252L14.3135 18.3932C14.2305 18.2271 14.0644 17.895 13.8984 17.4799C13.7323 17.0648 13.5663 16.7327 13.4002 16.3176C13.3172 16.1515 13.2342 16.0685 13.1512 15.9855H13.0681C13.0681 15.9855 12.9851 15.9025 12.9021 15.9025C12.8191 15.9025 12.736 15.8194 12.653 15.8194H9.66419C9.33209 15.8194 9.16605 15.9025 9.08303 15.9855L9 16.0685C9 16.0685 9 16.1515 9 16.2346C9 16.3176 9.00001 16.4006 9.08303 16.5666C9.49814 17.5629 9.99628 18.5592 10.4944 19.5555C10.9926 20.4687 11.4907 21.299 11.8228 21.8801C12.2379 22.4613 12.57 23.0424 12.9851 23.5406C13.4002 24.0387 13.6493 24.3708 13.7323 24.5368C13.8984 24.7029 13.9814 24.7859 14.0644 24.8689L14.3135 25.118C14.4795 25.2841 14.7286 25.5331 15.0607 25.7822C15.3928 26.0313 15.8079 26.2803 16.223 26.5294C16.6381 26.7785 17.1363 26.9445 17.6344 27.1106C18.2156 27.2766 18.7137 27.3596 19.2118 27.2766H20.4572C20.7062 27.2766 20.8723 27.1936 21.0383 27.0275L21.1213 26.9445C21.1213 26.8615 21.2044 26.8615 21.2044 26.7785C21.2044 26.6954 21.2044 26.6124 21.2044 26.4464C21.2044 26.1143 21.2044 25.8652 21.2874 25.6161C21.3704 25.3671 21.3704 25.201 21.4535 25.035C21.5365 24.8689 21.6195 24.7859 21.7025 24.7029C21.7855 24.6199 21.8686 24.5368 21.8686 24.5368H21.9516C22.1176 24.4538 22.3667 24.5368 22.5327 24.7029C22.7818 24.8689 23.0309 25.118 23.1969 25.3671C23.363 25.6161 23.612 25.8652 23.9441 26.1973C24.2762 26.5294 24.5253 26.7785 24.6913 26.8615L24.9404 27.0275C25.1064 27.1106 25.2725 27.1936 25.5216 27.2766C25.7706 27.3596 25.9367 27.3596 26.1027 27.3596L28.9255 27.2766C29.1746 27.2766 29.4236 27.1936 29.5897 27.1106C29.7557 27.0275 29.8387 26.9445 29.8387 26.7785C29.8387 26.6954 29.8387 26.5294 29.8387 26.4464C29.6727 26.2803 29.6727 26.1973 29.6727 26.1143Z" fill="white"/>
</svg>
