<svg width="33" height="33" viewBox="0 0 33 33" fill="none" xmlns="http://www.w3.org/2000/svg">
<rect width="33" height="33" rx="10" fill="#F79A38"/>
<path d="M22.6095 18.3077C23.0697 17.8395 23.1354 17.1706 22.741 16.5017C22.4123 15.9666 21.8206 15.699 21.1632 15.8328C20.9002 15.8997 20.6373 16.0335 20.3743 16.2341C18.3363 17.6388 15.5752 17.5719 13.5372 16.1672C13.4057 16.1003 13.2742 16.0334 13.1428 15.9666C12.4196 15.6321 11.6965 15.7659 11.302 16.4348C10.8418 17.1037 10.9075 17.8395 11.4992 18.4415C11.6307 18.5753 11.7622 18.6421 11.8279 18.7759L11.8937 18.8428C12.8141 19.5786 13.9317 20.0468 15.378 20.2475L14.5233 21.1171C13.8002 21.8529 13.0113 22.6555 12.2881 23.3913C12.0909 23.592 11.8279 23.9264 11.8279 24.3947C11.8279 24.9967 12.1566 25.5987 12.7483 25.8662C12.9455 26 13.1428 26 13.34 26C13.6687 26 14.0631 25.8662 14.3261 25.5318C15.3122 24.5284 16.1011 23.7258 16.89 22.9231C16.9558 22.8562 16.9558 22.8562 16.9558 22.8562C16.9558 22.8562 17.0215 22.8562 17.0215 22.9231C17.5474 23.5251 18.1391 24.0602 18.665 24.6622C18.928 24.9298 19.191 25.1973 19.4539 25.4649C19.7826 25.7993 20.0456 25.9331 20.44 25.9331C21.0317 26 21.6891 25.5987 21.9521 24.9967C22.2151 24.4615 22.0836 23.7926 21.6234 23.3913C20.966 22.7224 20.3086 21.9866 19.5854 21.3177L18.4678 20.1806C19.0595 20.1137 19.7169 19.9799 20.3086 19.7124C21.2947 19.3779 22.0178 18.9097 22.6095 18.3077Z" fill="white"/>
<path d="M16.9558 16.4348C19.7826 16.4348 22.0836 14.1605 22.0836 11.2843C22.0836 9.87959 21.5576 8.54181 20.5715 7.53846C19.5854 6.53512 18.3363 6 17.0215 6C14.1946 6 11.9594 8.34113 11.8937 11.1505C11.8937 12.5552 12.4196 13.8261 13.4057 14.8294C14.3261 15.8997 15.5752 16.4348 16.9558 16.4348ZM15.5094 9.74582C15.9039 9.34448 16.4298 9.14381 16.9558 9.14381C18.1391 9.14381 18.9937 10.0803 18.9937 11.2174C18.9937 12.4214 18.0734 13.291 16.9558 13.291C15.7724 13.291 14.9178 12.3545 14.9178 11.2174C14.9178 10.6823 15.115 10.1472 15.5094 9.74582Z" fill="white"/>
<path d="M22.6095 18.3077C23.0697 17.8395 23.1354 17.1706 22.741 16.5017C22.4123 15.9666 21.8206 15.699 21.1632 15.8328C20.9002 15.8997 20.6373 16.0335 20.3743 16.2341C18.3363 17.6388 15.5752 17.5719 13.5372 16.1672C13.4057 16.1003 13.2742 16.0334 13.1428 15.9666C12.4196 15.6321 11.6965 15.7659 11.302 16.4348C10.8418 17.1037 10.9075 17.8395 11.4992 18.4415C11.6307 18.5753 11.7622 18.6421 11.8279 18.7759L11.8937 18.8428C12.8141 19.5786 13.9317 20.0468 15.378 20.2475L14.5233 21.1171C13.8002 21.8529 13.0113 22.6555 12.2881 23.3913C12.0909 23.592 11.8279 23.9264 11.8279 24.3947C11.8279 24.9967 12.1566 25.5987 12.7483 25.8662C12.9455 26 13.1428 26 13.34 26C13.6687 26 14.0631 25.8662 14.3261 25.5318C15.3122 24.5284 16.1011 23.7258 16.89 22.9231C16.9558 22.8562 16.9558 22.8562 16.9558 22.8562C16.9558 22.8562 17.0215 22.8562 17.0215 22.9231C17.5474 23.5251 18.1391 24.0602 18.665 24.6622C18.928 24.9298 19.191 25.1973 19.4539 25.4649C19.7826 25.7993 20.0456 25.9331 20.44 25.9331C21.0317 26 21.6891 25.5987 21.9521 24.9967C22.2151 24.4615 22.0836 23.7926 21.6234 23.3913C20.966 22.7224 20.3086 21.9866 19.5854 21.3177L18.4678 20.1806C19.0595 20.1137 19.7169 19.9799 20.3086 19.7124C21.2947 19.3779 22.0178 18.9097 22.6095 18.3077Z" fill="white"/>
</svg>
