<svg width="33" height="33" viewBox="0 0 33 33" fill="none" xmlns="http://www.w3.org/2000/svg">
<rect width="33" height="33" rx="10" fill="#2F89CE"/>
<path d="M6.3507 16.3741L10.9488 18.0886L12.7413 23.8557C12.8192 24.2454 13.2868 24.3233 13.5985 24.0895L16.1703 21.9853C16.4041 21.7515 16.7938 21.7515 17.1055 21.9853L21.7036 25.3364C22.0154 25.5702 22.483 25.4144 22.5609 25.0247L25.99 8.65866C26.0679 8.26899 25.6782 7.87932 25.2886 8.03519L6.3507 15.3609C5.8831 15.5168 5.8831 16.2182 6.3507 16.3741ZM12.5075 17.2313L21.5477 11.6981C21.7036 11.6201 21.8595 11.8539 21.7036 11.9319L14.2999 18.868C14.0661 19.1018 13.8323 19.4135 13.8323 19.8032L13.5985 21.6736C13.5985 21.9074 13.2089 21.9853 13.1309 21.6736L12.1957 18.2445C11.9619 17.8548 12.1178 17.3872 12.5075 17.2313Z" fill="white"/>
</svg>
