<svg width="33" height="33" viewBox="0 0 33 33" fill="none" xmlns="http://www.w3.org/2000/svg">
<rect width="33" height="33" rx="10" fill="#48C95F"/>
<path d="M23.9268 9.0625C21.9512 7.09375 19.3171 6 16.5366 6C10.7561 6 6.07317 10.6667 6.07317 16.4271C6.07317 18.25 6.58537 20.0729 7.46341 21.6042L6 27L11.561 25.5417C13.0976 26.3438 14.7805 26.7812 16.5366 26.7812C22.3171 26.7812 27 22.1146 27 16.3542C26.9268 13.6563 25.9024 11.0312 23.9268 9.0625ZM21.5854 20.1458C21.3659 20.7292 20.3415 21.3125 19.8293 21.3854C19.3902 21.4583 18.8049 21.4583 18.2195 21.3125C17.8537 21.1667 17.3415 21.0208 16.7561 20.7292C14.122 19.6354 12.439 17.0104 12.2927 16.7917C12.1463 16.6458 11.1951 15.4062 11.1951 14.0937C11.1951 12.7812 11.8537 12.1979 12.0732 11.9062C12.2927 11.6146 12.5854 11.6146 12.8049 11.6146C12.9512 11.6146 13.1707 11.6146 13.3171 11.6146C13.4634 11.6146 13.6829 11.5417 13.9024 12.0521C14.122 12.5625 14.6341 13.875 14.7073 13.9479C14.7805 14.0938 14.7805 14.2396 14.7073 14.3854C14.6341 14.5312 14.561 14.6771 14.4146 14.8229C14.2683 14.9687 14.1219 15.1875 14.0488 15.2604C13.9024 15.4062 13.7561 15.5521 13.9024 15.7708C14.0488 16.0625 14.561 16.8646 15.3659 17.5937C16.3902 18.4687 17.1951 18.7604 17.4878 18.9063C17.7805 19.0521 17.9268 18.9792 18.0732 18.8333C18.2195 18.6875 18.7317 18.1042 18.878 17.8125C19.0244 17.5208 19.2439 17.5938 19.4634 17.6667C19.6829 17.7396 21 18.3958 21.2195 18.5417C21.5122 18.6875 21.6585 18.7604 21.7317 18.8333C21.8049 19.0521 21.8049 19.5625 21.5854 20.1458Z" fill="white"/>
</svg>
