<svg width="48" height="58" viewBox="0 0 48 58" fill="none" xmlns="http://www.w3.org/2000/svg">
<path d="M48 24C48 37.2548 31.3846 57.2308 24 57.2308C16.6154 57.2308 0 37.2548 0 24C0 10.7452 10.7452 0 24 0C37.2548 0 48 10.7452 48 24Z" fill="#CD1A24"/>
<path d="M14.2697 22.6641C12.2388 22.6641 10.5938 24.3091 10.5938 26.34V26.3907C10.5938 27.2919 10.9238 28.1627 11.5229 28.8354L20.9995 39.4823L21.0807 39.5737C22.8654 41.5767 25.9955 41.5741 27.7776 39.5712L27.8614 39.4773L35.858 30.4931H30.9838C29.7222 30.4931 28.5189 31.0313 27.6811 31.9757L24.4317 35.6262L17.4556 27.792H33.1899C35.9925 27.792 38.2646 25.52 38.2646 22.7174V22.6666H14.2697V22.6641Z" fill="white"/>
<path d="M32.8798 16.6149C31.872 15.4852 30.4301 14.8379 28.9171 14.8379H19.9456C18.4326 14.8379 16.9907 15.4852 15.9829 16.6149L13 19.9633H35.8627L32.8798 16.6149Z" fill="white"/>
</svg>
