<svg width="17" height="20" viewBox="0 0 17 20" fill="none" xmlns="http://www.w3.org/2000/svg">
<path d="M16.2742 8.3871C16.2742 10.5361 14.9048 13.3296 13.151 15.6272C12.2826 16.7647 11.3425 17.7506 10.4737 18.4466C10.0392 18.7947 9.63152 19.0631 9.26741 19.2425C8.89835 19.4243 8.6039 19.5 8.3871 19.5C8.1703 19.5 7.87585 19.4243 7.50679 19.2425C7.14268 19.0631 6.73498 18.7947 6.30052 18.4466C5.43169 17.7506 4.49155 16.7647 3.62325 15.6272C1.86939 13.3296 0.5 10.5361 0.5 8.3871C0.5 4.03117 4.03117 0.5 8.3871 0.5C12.743 0.5 16.2742 4.03117 16.2742 8.3871Z" stroke="black"/>
<circle cx="8.38659" cy="8.80847" r="3.37097" stroke="black"/>
</svg>
