<svg width="163" height="31" viewBox="0 0 163 31" fill="none" xmlns="http://www.w3.org/2000/svg">
<path d="M4.25605 9.0625C1.90464 9.0625 0 10.9671 0 13.3186V13.3773C0 14.4208 0.382104 15.4289 1.07577 16.2078L12.048 28.5351L12.1421 28.6409C14.2084 30.96 17.8325 30.9571 19.8959 28.638L19.9929 28.5292L29.2515 18.1272H23.6081C22.1473 18.1272 20.7541 18.7503 19.7842 19.8437L16.0219 24.0704L7.94482 14.9998H26.1624C29.4073 14.9998 32.038 12.3692 32.038 9.12422V9.06544H4.25605V9.0625Z" fill="#A91921"/>
<path d="M25.8047 2.05748C24.6378 0.749512 22.9683 0 21.2165 0H10.8292C9.07737 0 7.40787 0.749512 6.24099 2.05748L2.78735 5.93437H29.2583L25.8047 2.05748Z" fill="#A91921"/>
<path d="M47.5976 19.8338V4.31445H47.5447C44.6495 4.31445 42.304 6.65998 42.304 9.55516V21.3328C42.304 24.2691 44.6848 26.6499 47.6211 26.6499H66.5088V21.3328H49.0995C48.2677 21.3328 47.5976 20.6597 47.5976 19.8338Z" fill="#A91921"/>
<path d="M47.5976 19.8338V4.31445H47.5447C44.6495 4.31445 42.304 6.65998 42.304 9.55516V21.3328C42.304 24.2691 44.6848 26.6499 47.6211 26.6499H66.5088V21.3328H49.0995C48.2677 21.3328 47.5976 20.6597 47.5976 19.8338Z" fill="#A91921"/>
<path d="M103.876 19.8338V4.31445H103.823C100.928 4.31445 98.582 6.65998 98.582 9.55516V21.3328C98.582 24.2691 100.963 26.6499 103.899 26.6499H122.787V21.3328H105.378C104.549 21.3328 103.876 20.6597 103.876 19.8338Z" fill="#A91921"/>
<path d="M95.9476 15.4425V9.63452C95.9476 6.69526 93.5639 4.31445 90.6276 4.31445H74.5527C71.6164 4.31445 69.2327 6.69526 69.2327 9.63452V21.3974C69.2327 24.2985 71.5841 26.6499 74.4851 26.6499H90.6805C93.6756 26.6381 95.9447 24.3102 95.9447 21.3857V21.3328H76.0282C75.2111 21.3328 74.5469 20.6714 74.5469 19.8514V18.1231H93.2641C94.6661 18.1907 95.88 16.9797 95.9476 15.4425ZM74.5498 10.625C74.5498 9.79618 75.2229 9.12308 76.0518 9.12308H84.5639H89.1491C89.978 9.12308 90.6511 9.79618 90.6511 10.625V13.3321H84.5639H74.5527V10.625H74.5498Z" fill="#A91921"/>
<path d="M130.828 26.6117H125.511V9.57867C125.511 6.67174 127.868 4.31445 130.775 4.31445H130.828V26.6117Z" fill="#A91921"/>
<path d="M162.996 9.63531C162.996 6.72838 160.639 4.37109 157.732 4.37109H138.821C135.914 4.37109 133.557 6.72838 133.557 9.63531V9.68822H145.616V26.6507H150.934V9.68822H162.993V9.63531H162.996Z" fill="#A91921"/>
</svg>
