<svg width="33" height="33" viewBox="0 0 33 33" fill="none" xmlns="http://www.w3.org/2000/svg">
<rect width="33" height="33" rx="10" fill="#00A9E7"/>
<path d="M26.3182 18.0682C26.3864 17.5227 26.4545 17.0455 26.4545 16.5C26.4545 11.0455 22.0227 6.54545 16.5 6.54545C15.9545 6.54545 15.4773 6.61364 14.9318 6.68182C14.0455 6.20455 13.0909 6 12.1364 6C8.72727 6 6 8.72727 6 12.1364C6 13.0909 6.20455 14.0455 6.68182 14.9318C6.61364 15.4773 6.54545 15.9545 6.54545 16.5C6.54545 21.9545 10.9773 26.4545 16.5 26.4545C17.0455 26.4545 17.5227 26.3864 18.0682 26.3182C18.9545 26.7273 19.9091 27 20.8636 27C24.2727 27 27 24.2727 27 20.8636C27 19.9091 26.7273 18.9545 26.3182 18.0682ZM20.6591 20.1136C20.4545 20.5227 20.1818 20.8636 19.7727 21.1364C19.3636 21.4091 18.9545 21.6136 18.4091 21.75C17.8636 21.8864 17.25 21.9545 16.5682 21.9545C15.1364 21.9545 13.9773 21.6136 13.1591 21C12.6818 20.5909 12.2727 20.1136 12.0682 19.5C11.7955 18.9545 12.2727 18.2727 12.9545 18.2727H13.1591C13.5682 18.2727 13.9773 18.5455 14.1136 18.8864C14.25 19.2273 14.4545 19.5 14.7273 19.7045C15.1364 20.0455 15.75 20.1818 16.5 20.1818C17.1818 20.1818 17.7273 20.0455 18.1364 19.8409C18.5455 19.6364 18.75 19.2273 18.75 18.8182C18.75 18.6136 18.6818 18.4773 18.6136 18.3409C18.5455 18.2045 18.3409 18.0682 18.2045 18C18 17.8636 17.7955 17.7955 17.4545 17.7273C17.1818 17.6591 16.8409 17.5227 16.4318 17.4545L16.0227 17.3182C15.5455 17.1818 15 17.0455 14.5909 16.9091C14.1136 16.7727 13.7045 16.5682 13.3636 16.3636C13.0227 16.1591 12.75 15.8864 12.5455 15.4773C12.3409 15.1364 12.2727 14.6591 12.2727 14.1136C12.2727 13.5682 12.4091 13.0909 12.6136 12.6818C12.8182 12.2727 13.1591 11.9318 13.5 11.7273C13.9091 11.4545 14.3182 11.25 14.8636 11.1818C15.3409 11.0455 15.8864 10.9773 16.5 10.9773C17.1818 10.9773 17.7273 11.0455 18.2727 11.1818C18.8182 11.3182 19.2273 11.5227 19.6364 11.8636C20.0455 12.1364 20.3182 12.4773 20.5227 12.9545C20.8636 13.5682 20.3864 14.3864 19.6364 14.3864H19.4318C19.0227 14.3864 18.6818 14.1818 18.4773 13.8409C18.3409 13.6364 18.2045 13.4318 18 13.2273C17.6591 12.9545 17.1136 12.8182 16.5 12.8182C15.8864 12.8182 15.4091 12.9545 15.0682 13.1591C14.7273 13.3636 14.5909 13.7045 14.5909 14.0455C14.5909 14.25 14.6591 14.3864 14.7273 14.5227C14.7955 14.6591 14.9318 14.7955 15.1364 14.8636C15.3409 14.9318 15.5455 15.0682 15.8182 15.1364C16.0909 15.2045 16.4318 15.2727 16.8409 15.4091C17.25 15.4773 17.5909 15.6136 18 15.6818C18.3409 15.75 18.6818 15.8864 19.0227 15.9545C19.3636 16.0909 19.6364 16.2273 19.9091 16.3636C20.1818 16.5 20.3864 16.7045 20.5909 16.9091C20.7955 17.1136 20.9318 17.3864 21 17.6591C21.1364 17.9318 21.1364 18.3409 21.1364 18.75C21 19.2273 20.8636 19.7045 20.6591 20.1136Z" fill="white"/>
</svg>
