<svg width="33" height="33" viewBox="0 0 33 33" fill="none" xmlns="http://www.w3.org/2000/svg">
<rect width="33" height="33" rx="10" fill="#7C509A"/>
<path d="M22.2539 5.54591C18.4424 4.81803 14.4843 4.81803 10.6728 5.54591C8.98691 5.90986 6.86126 7.94793 6.49476 9.54928C5.83508 12.6792 5.83508 15.8819 6.49476 19.0118C6.93456 20.6131 9.06021 22.6512 10.6728 23.0152C10.7461 23.0152 10.8194 23.0879 10.8194 23.1607V27.7464C10.8194 27.9648 11.1126 28.1103 11.2592 27.892L13.4581 25.6355C13.4581 25.6355 15.2173 23.8158 15.5105 23.5247C15.5105 23.5247 15.5838 23.4519 15.6571 23.4519C17.856 23.5247 20.1283 23.3063 22.3272 22.9424C24.0131 22.5784 26.1387 20.5403 26.5052 18.939C27.1649 15.8091 27.1649 12.6064 26.5052 9.47649C26.0654 7.94793 23.9398 5.90986 22.2539 5.54591ZM22.3272 19.2302C21.9607 19.958 21.5209 20.5403 20.788 20.9043C20.5681 20.9771 20.3482 21.0499 20.1283 21.1227C19.8351 21.0499 19.6152 20.9771 19.3953 20.9043C17.0497 19.958 14.8508 18.6478 13.0916 16.7553C12.1387 15.6635 11.3325 14.4261 10.6728 13.1159C10.3796 12.4608 10.0864 11.8785 9.86649 11.2234C9.6466 10.6411 10.0131 10.0588 10.3796 9.62207C10.7461 9.18534 11.1859 8.89418 11.699 8.67582C12.0654 8.45745 12.4319 8.60303 12.7251 8.89418C13.3115 9.62207 13.8979 10.35 14.3377 11.1506C14.6309 11.6601 14.5576 12.2425 14.0445 12.6064C13.8979 12.6792 13.8246 12.752 13.678 12.8976C13.6047 12.9703 13.4581 13.0431 13.3848 13.1887C13.2382 13.4071 13.2382 13.6254 13.3115 13.8438C13.8979 15.5179 14.9974 16.8281 16.6832 17.556C16.9764 17.7016 17.1963 17.7744 17.5628 17.7744C18.0759 17.7016 18.2958 17.1193 18.6623 16.8281C19.0288 16.537 19.4686 16.537 19.9084 16.7553C20.2749 16.9737 20.6414 17.2649 21.0811 17.556C21.4476 17.8472 21.8141 18.0655 22.1806 18.3567C22.4005 18.5023 22.4738 18.8662 22.3272 19.2302ZM19.2487 13.771C19.1021 13.771 19.1754 13.771 19.2487 13.771C18.9555 13.771 18.8822 13.6254 18.8089 13.4071C18.8089 13.2615 18.8089 13.0431 18.7356 12.8976C18.6623 12.6064 18.5157 12.3152 18.2225 12.0969C18.0759 12.0241 17.9293 11.9513 17.7827 11.8785C17.5628 11.8057 17.4162 11.8057 17.1963 11.8057C16.9764 11.7329 16.9031 11.5874 16.9031 11.369C16.9031 11.2234 17.123 11.0778 17.2696 11.0778C18.4424 11.1506 19.322 11.8057 19.4686 13.1887C19.4686 13.2615 19.4686 13.4071 19.4686 13.4799C19.4686 13.6254 19.3953 13.771 19.2487 13.771ZM18.5157 10.5683C18.1492 10.4227 17.7827 10.2772 17.3429 10.2044C17.1963 10.2044 16.9764 10.1316 16.8298 10.1316C16.6099 10.1316 16.4634 9.98601 16.5366 9.76765C16.5366 9.54928 16.6832 9.4037 16.9031 9.47649C17.6361 9.54928 18.2958 9.69486 18.9555 9.98601C20.2749 10.6411 21.0079 11.7329 21.2277 13.1887C21.2277 13.2615 21.2277 13.3343 21.2277 13.4071C21.2277 13.5526 21.2277 13.6982 21.2277 13.9166C21.2277 13.9894 21.2277 14.0622 21.2277 14.135C21.1545 14.4261 20.6414 14.4989 20.5681 14.135C20.5681 14.0622 20.4948 13.9166 20.4948 13.8438C20.4948 13.1887 20.3482 12.5336 20.055 11.9513C19.6152 11.2962 19.1021 10.8595 18.5157 10.5683ZM22.4738 14.9356C22.2539 14.9356 22.1073 14.7173 22.1073 14.4989C22.1073 14.0622 22.034 13.6254 21.9607 13.1887C21.6675 10.8595 19.7618 8.96697 17.4895 8.60303C17.123 8.53024 16.7565 8.53024 16.4634 8.45745C16.2435 8.45745 15.9503 8.45745 15.877 8.1663C15.8037 7.94793 16.0236 7.72957 16.2435 7.72957C16.3168 7.72957 16.3901 7.72957 16.3901 7.72957C19.3953 7.80236 16.5367 7.72957 16.3901 7.72957C19.4686 7.80236 22.034 9.84044 22.5471 12.8976C22.6204 13.4071 22.6937 13.9166 22.6937 14.4989C22.8403 14.7173 22.6937 14.9356 22.4738 14.9356Z" fill="white"/>
</svg>
