<svg width="33" height="33" viewBox="0 0 33 33" fill="none" xmlns="http://www.w3.org/2000/svg">
<rect width="33" height="33" rx="10" fill="#7294C7"/>
<path d="M26.6727 20.876C26.6727 20.793 26.5897 20.793 26.5897 20.71C26.2576 20.0458 25.5104 19.2155 24.5141 18.3023C24.016 17.8872 23.7669 17.5551 23.6009 17.389C23.3518 17.0569 23.3518 16.8079 23.4348 16.4758C23.5179 16.2267 23.8499 15.8116 24.4311 15.0644C24.7632 14.6493 24.9292 14.4002 25.1783 14.1511C26.4236 12.4907 27.0048 11.4114 26.8387 10.9132L26.7557 10.8302C26.6727 10.7472 26.5897 10.6642 26.4236 10.6642C26.2576 10.5812 26.0085 10.5812 25.7595 10.6642H22.6046C22.5216 10.6642 22.5216 10.6642 22.3555 10.6642C22.2725 10.6642 22.1895 10.6642 22.1895 10.6642H22.1065H22.0234L21.9404 10.7472C21.8574 10.8302 21.8574 10.8302 21.8574 10.9132C21.5253 11.8265 21.1102 12.5737 20.6951 13.4039C20.446 13.819 20.1969 14.2342 19.9479 14.5663C19.6988 14.8984 19.5327 15.1474 19.3667 15.3135C19.2006 15.4795 19.0346 15.5625 18.9516 15.7286C18.8685 15.8116 18.7025 15.8946 18.7025 15.8116C18.6195 15.8116 18.5365 15.8116 18.5365 15.7286C18.4534 15.6456 18.3704 15.5625 18.2874 15.4795C18.2044 15.3965 18.2044 15.2304 18.1213 15.0644C18.1213 14.8983 18.1213 14.7323 18.1213 14.6493C18.1213 14.5663 18.1213 14.3172 18.1213 14.1511C18.1213 13.9021 18.1213 13.736 18.1213 13.653C18.1213 13.4039 18.1213 13.0719 18.1213 12.7398C18.1213 12.4077 18.1213 12.1586 18.1213 11.9925C18.1213 11.8265 18.1213 11.5774 18.1213 11.4114C18.1213 11.1623 18.1213 10.9963 18.1213 10.9132C18.1213 10.8302 18.0383 10.6642 18.0383 10.5812C17.9553 10.4981 17.8723 10.4151 17.7893 10.3321C17.7062 10.2491 17.5402 10.2491 17.4572 10.166C17.0421 10.083 16.5439 10 15.9628 10C14.6344 10 13.7211 10.083 13.389 10.2491C13.223 10.3321 13.057 10.4151 12.9739 10.5812C12.8079 10.7472 12.8079 10.8302 12.8909 10.8302C13.306 10.9133 13.6381 11.0793 13.8042 11.3284L13.8872 11.4944C13.9702 11.5774 13.9702 11.7435 14.0532 11.9925C14.1362 12.2416 14.1362 12.4907 14.1362 12.8228C14.1362 13.3209 14.1362 13.8191 14.1362 14.1511C14.1362 14.5663 14.0532 14.8153 14.0532 15.0644C14.0532 15.3135 13.9702 15.4795 13.8872 15.5625C13.8042 15.7286 13.8042 15.8116 13.7211 15.8116C13.7211 15.8116 13.7211 15.8946 13.6381 15.8946C13.5551 15.8946 13.4721 15.9776 13.306 15.9776C13.223 15.9776 13.057 15.8946 12.9739 15.8116C12.8079 15.7286 12.6418 15.5625 12.5588 15.3965C12.3928 15.2304 12.2267 14.9814 12.0607 14.6493C11.8946 14.3172 11.6456 13.9851 11.4795 13.487L11.3135 13.1549C11.2305 12.9888 11.0644 12.6567 10.8984 12.2416C10.7323 11.8265 10.5663 11.4944 10.4002 11.0793C10.3172 10.9133 10.2342 10.8302 10.1512 10.7472H10.0681C10.0681 10.7472 9.9851 10.6642 9.90208 10.6642C9.81905 10.6642 9.73604 10.5812 9.65302 10.5812H6.66419C6.33209 10.5812 6.16605 10.6642 6.08303 10.7472L6 10.8302C6 10.8302 6 10.9132 6 10.9963C6 11.0793 6.00001 11.1623 6.08303 11.3284C6.49814 12.3246 6.99628 13.3209 7.49442 14.3172C7.99255 15.2304 8.4907 16.0607 8.82279 16.6418C9.2379 17.223 9.56999 17.8042 9.9851 18.3023C10.4002 18.8004 10.6493 19.1325 10.7323 19.2986C10.8984 19.4646 10.9814 19.5476 11.0644 19.6307L11.3135 19.8797C11.4795 20.0458 11.7286 20.2948 12.0607 20.5439C12.3928 20.793 12.8079 21.042 13.223 21.2911C13.6381 21.5402 14.1363 21.7062 14.6344 21.8723C15.2156 22.0383 15.7137 22.1213 16.2118 22.0383H17.4572C17.7062 22.0383 17.8723 21.9553 18.0383 21.7893L18.1213 21.7062C18.1213 21.6232 18.2044 21.6232 18.2044 21.5402C18.2044 21.4572 18.2044 21.3741 18.2044 21.2081C18.2044 20.876 18.2044 20.6269 18.2874 20.3779C18.3704 20.1288 18.3704 19.9628 18.4535 19.7967C18.5365 19.6307 18.6195 19.5476 18.7025 19.4646C18.7855 19.3816 18.8686 19.2986 18.8686 19.2986H18.9516C19.1176 19.2155 19.3667 19.2986 19.5327 19.4646C19.7818 19.6307 20.0309 19.8797 20.1969 20.1288C20.363 20.3779 20.612 20.6269 20.9441 20.959C21.2762 21.2911 21.5253 21.5402 21.6913 21.6232L21.9404 21.7893C22.1064 21.8723 22.2725 21.9553 22.5216 22.0383C22.7706 22.1213 22.9367 22.1213 23.1027 22.1213L25.9255 22.0383C26.1746 22.0383 26.4236 21.9553 26.5897 21.8723C26.7557 21.7893 26.8387 21.7062 26.8387 21.5402C26.8387 21.4572 26.8387 21.2911 26.8387 21.2081C26.6727 21.042 26.6727 20.959 26.6727 20.876Z" fill="white"/>
</svg>
