<svg width="19" height="20" viewBox="0 0 19 20" fill="none" xmlns="http://www.w3.org/2000/svg">
<path d="M8.73784 10.2438C8.73784 9.85026 8.81996 9.48351 8.98421 9.1436C9.14847 8.80369 9.3473 8.51298 9.58071 8.27146C9.81412 8.02994 10.0475 7.80185 10.2809 7.58717C10.5143 7.36354 10.7132 7.12203 10.8774 6.86262C11.0417 6.59427 11.1238 6.3125 11.1238 6.01732C11.1238 5.57007 10.9725 5.23015 10.67 4.99758C10.376 4.75607 9.99133 4.63531 9.51587 4.63531C8.56494 4.63531 7.95548 5.06914 7.68749 5.93681L6.66309 5.34644C6.87921 4.72029 7.24661 4.2462 7.7653 3.92418C8.28399 3.59322 8.87183 3.42773 9.52884 3.42773C10.2982 3.42773 10.9552 3.65136 11.4999 4.09861C12.0531 4.54586 12.3298 5.16754 12.3298 5.96365C12.3298 6.33934 12.2476 6.69266 12.0834 7.02363C11.9191 7.3546 11.7203 7.64084 11.4869 7.88235C11.2535 8.12387 11.0201 8.36091 10.7867 8.59348C10.5532 8.81711 10.3544 9.07204 10.1902 9.35828C10.0259 9.63557 9.94379 9.93076 9.94379 10.2438H8.73784ZM9.33433 13.142C9.10092 13.142 8.90209 13.057 8.73784 12.8871C8.57359 12.7171 8.49146 12.5114 8.49146 12.2699C8.49146 12.0284 8.57359 11.8226 8.73784 11.6527C8.90209 11.4827 9.10092 11.3977 9.33433 11.3977C9.57638 11.3977 9.77521 11.4827 9.93082 11.6527C10.0951 11.8226 10.1772 12.0284 10.1772 12.2699C10.1772 12.5114 10.0951 12.7171 9.93082 12.8871C9.77521 13.057 9.57638 13.142 9.33433 13.142Z" fill="#16171B"/>
<path d="M1 3V18L3.58109 15.4189H16.0235C17.128 15.4189 18.0235 14.5235 18.0235 13.4189V3C18.0235 1.89543 17.128 1 16.0235 1H3C1.89543 1 1 1.89543 1 3Z" stroke="black"/>
</svg>
