<svg width="199" height="38" viewBox="0 0 199 38" fill="none" xmlns="http://www.w3.org/2000/svg">
<path d="M5.1961 11.0645C2.32533 11.0645 0 13.3898 0 16.2606V16.3323C0 17.6062 0.466501 18.8371 1.31338 19.788L14.7091 34.838L14.824 34.9672C17.3466 37.7985 21.7712 37.7949 24.2903 34.9636L24.4088 34.8309L35.7124 22.1313H28.8226C27.0391 22.1313 25.3382 22.892 24.154 24.2269L19.5607 29.3872L9.69962 18.3132H31.9409C35.9026 18.3132 39.1143 15.1015 39.1143 11.1398V11.068H5.1961V11.0645Z" fill="#CD1A24"/>
<path d="M31.5036 2.51193C30.079 0.915059 28.0408 0 25.902 0H13.2204C11.0817 0 9.04341 0.915059 7.61879 2.51193L3.40234 7.24511H35.7201L31.5036 2.51193Z" fill="#CD1A24"/>
<path d="M58.1113 24.2127V5.26562H58.0467C54.512 5.26562 51.6484 8.12922 51.6484 11.6639V26.0428C51.6484 29.6277 54.5551 32.5344 58.14 32.5344H81.1995V26.0428H59.945C58.9294 26.0428 58.1113 25.2211 58.1113 24.2127Z" fill="#CD1A24"/>
<path d="M58.1113 24.2127V5.26562H58.0467C54.512 5.26562 51.6484 8.12922 51.6484 11.6639V26.0428C51.6484 29.6277 54.5551 32.5344 58.14 32.5344H81.1995V26.0428H59.945C58.9294 26.0428 58.1113 25.2211 58.1113 24.2127Z" fill="#CD1A24"/>
<path d="M126.822 24.2127V5.26562H126.758C123.223 5.26562 120.359 8.12922 120.359 11.6639V26.0428C120.359 29.6277 123.266 32.5344 126.851 32.5344H149.91V26.0428H128.656C127.644 26.0428 126.822 25.2211 126.822 24.2127Z" fill="#CD1A24"/>
<path d="M117.139 18.8516V11.7607C117.139 8.17228 114.229 5.26562 110.644 5.26562H91.0186C87.4337 5.26562 84.5234 8.17228 84.5234 11.7607V26.1218C84.5234 29.6636 87.3942 32.5344 90.936 32.5344H110.708C114.365 32.52 117.135 29.678 117.135 26.1074V26.0428H92.82C91.8224 26.0428 91.0114 25.2354 91.0114 24.2343V22.1242H113.863C115.574 22.2068 117.056 20.7283 117.139 18.8516ZM91.015 12.9701C91.015 11.9581 91.8367 11.1364 92.8487 11.1364H103.241H108.839C109.851 11.1364 110.673 11.9581 110.673 12.9701V16.275H103.241H91.0186V12.9701H91.015Z" fill="#CD1A24"/>
<path d="M159.726 32.4877H153.234V11.6926C153.234 8.14357 156.112 5.26562 159.661 5.26562H159.726V32.4877Z" fill="#CD1A24"/>
<path d="M198.997 11.7609C198.997 8.21194 196.119 5.33398 192.57 5.33398H169.482C165.933 5.33398 163.055 8.21194 163.055 11.7609V11.8255H177.778V32.5346H184.27V11.8255H198.993V11.7609H198.997Z" fill="#CD1A24"/>
</svg>
